<?xml version="1.0" standalone="no"?>
<!DOCTYPE svg PUBLIC "-//W3C//DTD SVG 1.1//EN" "http://www.w3.org/Graphics/SVG/1.1/DTD/svg11.dtd" >
<svg xmlns="http://www.w3.org/2000/svg">
<metadata>Generated by IcoMoon</metadata>
<defs>
<font id="futura-pt-book" horiz-adv-x="512">
<font-face units-per-em="512" ascent="480" descent="-32" />
<missing-glyph horiz-adv-x="512" />
<glyph unicode="&#x20;" horiz-adv-x="256" d="" />
<glyph unicode="&#x21;" glyph-name="exclam" horiz-adv-x="144" d="M90.112 158.464h-36.864v272.384h36.864v-272.384zM46.080 109.824c0 13.824 11.776 25.6 25.6 25.6s25.6-11.776 25.6-25.6-11.776-25.6-25.6-25.6-25.6 11.776-25.6 25.6z" />
<glyph unicode="&#x22;" glyph-name="quotedbl" horiz-adv-x="169" d="M68.608 430.848l-6.656-137.216h-27.648l-6.656 137.216h40.96zM141.312 430.848l-6.656-137.216h-27.648l-6.656 137.216h40.96z" />
<glyph unicode="&#x23;" glyph-name="numbersign" horiz-adv-x="307" d="M201.728 89.344h-37.376l16.384 105.984h-69.632l-16.384-105.984h-37.376l16.384 105.984h-56.32l5.12 33.792h56.32l10.24 68.096h-56.32l5.12 33.792h56.32l15.36 99.84h37.376l-15.36-99.84h69.632l15.36 99.84h37.376l-15.36-99.84h56.32l-5.12-33.792h-56.32l-10.24-68.096h56.32l-5.12-33.792h-56.32zM185.856 229.12l10.24 68.096h-69.632l-10.24-68.096h69.632z" />
<glyph unicode="&#x24;" glyph-name="dollar" horiz-adv-x="291" d="M239.104 383.232l-30.208-19.968c-4.608 9.216-12.288 19.456-19.456 25.6-8.704 7.68-16.384 9.728-22.016 10.752v-113.664c25.088-9.728 45.568-20.992 59.904-35.84 16.384-16.896 24.064-37.888 24.064-61.952 0-46.080-29.184-94.208-83.968-102.912v-47.616h-30.72v45.568c-28.16 1.024-50.688 13.312-65.536 27.648-15.872 15.872-27.136 39.424-31.744 60.416l36.864 10.24c2.56-17.92 10.24-33.28 20.48-43.52 13.824-14.336 28.672-18.432 39.936-18.944v140.288c-13.824 5.632-38.912 16.896-56.32 33.28-17.92 16.896-23.552 34.304-23.552 55.808 0 48.64 35.84 82.944 79.872 87.040v44.544h30.72v-44.544c9.728-1.024 23.552-3.584 38.912-14.336 13.312-9.216 25.088-23.040 32.768-37.888zM167.424 244.992v-123.904c28.672 7.68 45.056 37.888 45.056 65.536 0 19.968-8.704 32.768-16.384 40.448s-20.992 14.848-28.672 17.92zM136.704 299.776v99.84c-27.648-4.608-41.984-26.624-41.984-50.688 0-11.264 3.072-20.992 12.8-30.72 7.168-7.168 18.944-14.336 29.184-18.432z" />
<glyph unicode="&#x25;" glyph-name="percent" horiz-adv-x="364" d="M91.136 433.92c41.472 0 74.24-32.768 74.24-74.24s-32.768-74.24-74.24-74.24-74.24 32.768-74.24 74.24 32.768 74.24 74.24 74.24zM91.136 313.6c25.088 0 43.52 20.992 43.52 46.080s-18.432 46.080-43.52 46.080c-24.064 0-43.52-20.48-43.52-46.080s19.456-46.080 43.52-46.080zM72.192 94.464l199.168 343.040 19.968-11.264-199.168-343.552zM272.384 234.24c41.472 0 74.24-32.768 74.24-74.24s-32.768-74.24-74.24-74.24-74.24 32.768-74.24 74.24 32.768 74.24 74.24 74.24zM272.384 113.92c25.088 0 43.52 20.992 43.52 46.080s-18.432 46.080-43.52 46.080c-24.064 0-43.52-20.48-43.52-46.080s19.456-46.080 43.52-46.080z" />
<glyph unicode="&#x26;" glyph-name="ampersand" horiz-adv-x="326" d="M279.040 237.312l27.648-23.040c-9.216-12.8-22.528-29.184-43.52-50.688l57.344-74.24h-47.104l-36.864 47.616c-29.696-29.696-71.168-53.76-110.080-53.76-55.808 0-98.816 40.448-98.816 94.72 0 36.864 19.456 59.392 30.72 70.656 17.92 17.92 50.176 37.888 57.344 42.496-23.040 29.696-33.792 50.176-33.792 73.216 0 35.84 25.088 72.192 74.24 72.192 47.616 0 72.192-34.304 72.192-68.608 0-15.872-4.608-38.4-31.744-61.952-8.704-7.68-5.632-3.584-27.648-22.016l71.168-91.648c18.432 19.456 29.184 31.744 38.912 45.056zM213.504 165.12l-75.776 97.792c-25.088-15.36-38.4-26.624-48.128-35.328s-24.064-22.528-24.064-49.152c0-33.792 25.088-60.416 60.416-60.416 36.352 0 74.752 34.816 87.552 47.104zM131.584 332.544l15.36-20.992 22.528 17.408c19.456 15.36 23.040 27.648 23.040 39.424 0 24.064-18.944 35.328-36.864 35.328-20.992 0-37.888-15.872-37.888-37.376 0-14.848 7.168-24.576 13.824-33.792z" />
<glyph unicode="&#x27;" glyph-name="quotesingle" horiz-adv-x="97" d="M68.608 430.848l-6.656-137.216h-27.648l-6.656 137.216h40.96z" />
<glyph unicode="&#x28;" glyph-name="parenleft" horiz-adv-x="151" d="M85.504 468.224l32.256-14.848c-9.216-24.064-18.944-53.76-26.112-88.576-9.216-44.544-12.8-84.48-12.8-129.024 0-41.984 2.56-78.848 12.288-124.928 6.656-33.28 15.872-64 26.624-93.696l-32.256-14.848c-22.528 58.88-32.256 107.52-33.792 115.712-7.168 37.888-10.752 80.896-10.752 118.784 0 34.304 2.56 81.92 14.336 133.12 7.68 32.768 19.968 71.168 30.208 98.304z" />
<glyph unicode="&#x29;" glyph-name="parenright" horiz-adv-x="151" d="M32.768 453.376l32.256 14.848c10.24-27.136 22.528-65.536 30.208-98.304 11.776-51.2 14.336-98.816 14.336-133.12 0-37.888-3.584-80.896-10.752-118.784-1.536-8.192-11.264-56.832-33.792-115.712l-32.256 14.848c10.752 29.696 19.968 60.416 26.624 93.696 9.728 46.080 12.288 82.944 12.288 124.928 0 44.544-3.584 84.48-12.8 129.024-7.168 34.816-16.896 64.512-26.112 88.576z" />
<glyph unicode="&#x2a;" glyph-name="asterisk" horiz-adv-x="291" d="M71.168 421.12l59.392-22.016-2.56 63.488h34.816l-2.56-63.488 59.392 22.016 10.752-32.256-61.44-17.408 39.424-49.664-27.648-19.968-35.328 52.736-35.328-52.736-27.648 19.968 39.424 49.664-61.44 17.408z" />
<glyph unicode="&#x2b;" glyph-name="plus" d="M16.896 242.944v33.792h92.672v88.064h36.864v-88.064h92.672v-33.792h-92.672v-88.064h-36.864v88.064h-92.672z" />
<glyph unicode="&#x2c;" glyph-name="comma" horiz-adv-x="141" d="M12.288 21.248l41.984 118.272 33.792-12.288-51.712-115.712z" />
<glyph unicode="&#x2d;" glyph-name="hyphen" horiz-adv-x="164" d="M25.6 179.456v37.888h112.64v-37.888h-112.64z" />
<glyph unicode="&#x2e;" glyph-name="period" horiz-adv-x="117" d="M32.768 109.824c0 13.824 11.776 25.6 25.6 25.6s25.6-11.776 25.6-25.6-11.776-25.6-25.6-25.6-25.6 11.776-25.6 25.6z" />
<glyph unicode="&#x2f;" glyph-name="slash" horiz-adv-x="303" d="M0 2.304l263.168 475.648 29.696-15.36-263.168-474.624z" />
<glyph unicode="&#x30;" glyph-name="zero" horiz-adv-x="291" d="M145.408 83.2c-27.136 0-61.44 13.312-87.552 51.2-22.528 32.768-34.304 76.8-34.304 125.44s11.776 92.672 34.304 125.44c26.112 37.888 60.416 51.2 87.552 51.2s61.44-13.312 87.552-51.2c22.528-32.768 34.304-76.8 34.304-125.44s-11.776-92.672-34.304-125.44c-26.112-37.888-60.416-51.2-87.552-51.2zM145.408 401.664c-17.408 0-40.96-9.216-58.88-37.888-18.432-29.184-25.088-68.096-25.088-103.936s6.656-74.752 25.088-103.936c17.92-28.672 41.472-37.888 58.88-37.888s40.96 9.216 58.88 37.888c18.432 29.184 25.088 68.096 25.088 103.936s-6.656 74.752-25.088 103.936c-17.92 28.672-41.472 37.888-58.88 37.888z" />
<glyph unicode="&#x31;" glyph-name="one" horiz-adv-x="291" d="M136.192 89.344v305.664h-57.344l19.968 35.84h75.264v-341.504h-37.888z" />
<glyph unicode="&#x32;" glyph-name="two" horiz-adv-x="291" d="M246.272 89.344h-220.672l124.416 143.872c8.704 10.24 31.744 37.376 39.936 49.664 15.36 22.016 18.944 38.4 18.944 52.224 0 38.4-27.648 66.56-68.096 66.56-24.064 0-44.032-10.752-56.832-30.208-6.656-10.24-10.752-23.040-11.264-40.448h-37.888c1.536 34.304 12.288 55.296 25.6 70.656 14.336 16.384 38.4 34.816 80.896 34.816 60.416 0 105.472-43.008 105.472-101.888 0-23.040-6.656-44.032-27.136-73.216-14.336-19.968-32.768-40.96-46.592-56.832l-71.168-80.384h144.384v-34.816z" />
<glyph unicode="&#x33;" glyph-name="three" horiz-adv-x="291" d="M81.92 346.368h-37.888c1.024 18.944 7.168 36.352 15.872 50.176 22.528 35.328 58.88 39.936 79.36 39.936 64.512 0 96.256-45.056 96.256-92.16 0-24.576-9.216-58.368-44.032-75.776 11.776-4.608 49.152-23.552 49.152-82.432 0-64-46.592-102.912-104.96-102.912-35.328 0-76.8 14.848-95.232 58.88-5.12 12.288-7.168 23.552-7.68 35.84h37.888c1.536-12.288 5.632-25.088 12.288-34.304 11.264-16.384 31.232-25.6 52.736-25.6 37.888 0 67.072 31.232 67.072 69.12 0 19.456-7.68 45.568-33.792 57.344-10.752 5.12-25.6 7.68-38.912 7.168v33.792c13.312-1.024 28.16 1.536 38.912 7.168s28.672 19.968 28.672 50.688c0 30.208-16.384 58.368-58.368 58.368-13.824 0-30.72-2.56-44.032-19.456-6.656-8.704-12.288-21.504-13.312-35.84z" />
<glyph unicode="&#x34;" glyph-name="four" horiz-adv-x="291" d="M223.232 449.792v-261.12h41.984v-34.816h-41.984v-64.512h-37.888v64.512h-175.104zM77.312 188.672h108.032v151.040z" />
<glyph unicode="&#x35;" glyph-name="five" horiz-adv-x="291" d="M245.248 430.848v-34.816h-109.568l-22.016-73.728c6.656 1.536 13.312 2.048 21.504 2.048 68.608 0 112.64-51.712 112.64-118.272 0-76.288-57.344-122.88-124.416-122.88-27.648 0-53.248 7.68-76.288 26.624-10.752 9.216-21.504 20.992-29.696 34.816l30.208 21.504c5.632-11.264 12.8-19.456 23.040-27.648 14.336-11.776 31.744-20.48 55.296-20.48 48.128 0 83.968 39.424 83.968 87.552 0 49.152-35.328 83.968-83.968 83.968-12.288 0-35.328-2.048-66.048-23.552l49.664 164.864h135.68z" />
<glyph unicode="&#x36;" glyph-name="six" horiz-adv-x="291" d="M172.032 439.040l28.672-21.504-78.336-109.056c9.728 3.072 19.456 4.608 30.208 4.608 65.536 0 110.592-49.152 110.592-112.64 0-68.096-49.152-117.248-117.248-117.248-80.384 0-118.272 62.464-118.272 116.224 0 12.8 2.56 42.496 28.16 78.336zM145.408 118.016c47.104 0 79.872 35.328 79.872 81.408 0 45.568-33.792 78.848-80.384 78.848s-79.36-34.304-79.36-78.848c0-45.568 32.256-81.408 79.872-81.408z" />
<glyph unicode="&#x37;" glyph-name="seven" horiz-adv-x="291" d="M26.624 101.12l194.048 294.912h-186.88v34.816h250.88l-228.352-349.696z" />
<glyph unicode="&#x38;" glyph-name="eight" horiz-adv-x="291" d="M198.144 267.008c34.816-15.36 51.712-46.592 51.712-83.456 0-53.248-34.816-100.352-104.448-100.352s-104.448 47.104-104.448 100.352c0 36.864 16.896 68.096 51.712 83.456-27.136 15.872-41.472 43.008-41.472 74.752 0 48.64 32.768 94.72 94.208 94.72s94.208-46.080 94.208-94.72c0-31.744-14.336-58.88-41.472-74.752zM145.408 282.368c33.28 0 58.368 25.088 58.368 58.88 0 37.376-27.136 60.416-58.368 60.416s-58.368-23.040-58.368-60.416c0-33.792 25.088-58.88 58.368-58.88zM145.408 118.016c39.424 0 66.56 27.648 66.56 66.56 0 38.4-27.648 65.024-66.56 65.024s-66.56-26.624-66.56-65.024c0-38.912 27.136-66.56 66.56-66.56z" />
<glyph unicode="&#x39;" glyph-name="nine" horiz-adv-x="291" d="M118.784 81.152l-28.672 20.992 78.336 109.056c-9.728-3.072-19.456-4.608-30.208-4.608-65.536 0-110.592 49.152-110.592 112.64 0 68.096 49.152 117.248 117.248 117.248 80.384 0 118.272-62.464 118.272-116.224 0-12.8-2.56-43.008-28.16-78.336zM145.408 401.664c-47.104 0-79.872-35.328-79.872-81.408 0-45.568 33.792-78.848 80.384-78.848s79.36 34.304 79.36 78.848c0 45.568-32.256 81.408-79.872 81.408z" />
<glyph unicode="&#x3a;" glyph-name="colon" horiz-adv-x="117" d="M32.768 281.344c0 13.824 11.776 25.6 25.6 25.6s25.6-11.776 25.6-25.6-11.776-25.6-25.6-25.6-25.6 11.776-25.6 25.6zM32.768 108.8c0 13.824 11.776 25.6 25.6 25.6s25.6-11.776 25.6-25.6-11.776-25.6-25.6-25.6-25.6 11.776-25.6 25.6z" />
<glyph unicode="&#x3b;" glyph-name="semicolon" horiz-adv-x="141" d="M39.936 281.344c0 13.824 11.776 25.6 25.6 25.6s25.6-11.776 25.6-25.6-11.776-25.6-25.6-25.6-25.6 11.776-25.6 25.6zM12.288 21.248l41.984 118.272 33.792-12.288-51.712-115.712z" />
<glyph unicode="&#x3c;" glyph-name="less" d="M56.32 258.304l182.784-82.944v-36.864l-222.208 103.936v31.744l222.208 103.936v-36.864z" />
<glyph unicode="&#x3d;" glyph-name="equal" d="M16.896 285.952v33.792h222.208v-33.792h-222.208zM16.896 207.104v33.792h222.208v-33.792h-222.208z" />
<glyph unicode="&#x3e;" glyph-name="greater" d="M199.68 258.304l-182.784 82.944v36.864l222.208-103.936v-31.744l-222.208-103.936v36.864z" />
<glyph unicode="&#x3f;" glyph-name="question" horiz-adv-x="223" d="M147.968 237.312h36.864c0-24.064-8.192-44.544-20.992-57.856-8.192-8.704-24.576-20.48-52.736-20.48-26.112 0-43.008 10.24-53.248 20.48-8.192 8.192-20.48 25.088-20.48 52.736 0 36.352 20.48 53.248 43.008 63.488 17.92 8.192 32.256 10.24 43.008 14.336 30.208 10.752 32.768 31.744 32.768 45.056 0 10.24-1.536 25.088-13.312 35.84-5.632 5.12-15.36 10.752-31.232 10.752-11.776 0-24.064-3.072-32.256-10.752-9.216-8.704-13.312-23.040-13.312-34.304 0-6.656 1.024-14.848 3.072-21.504h-37.888c-1.536 7.168-2.048 14.336-2.048 22.528 0 16.384 3.072 37.888 19.456 55.296 12.288 13.312 32.256 23.552 62.464 23.552 22.528 0 43.52-5.12 60.416-22.016 10.752-10.752 22.528-29.184 22.528-60.416 0-18.432-4.096-34.816-17.408-50.176-10.752-12.288-24.064-19.968-39.424-25.6-11.776-4.096-24.576-7.168-36.864-12.8-7.68-3.584-25.088-11.776-25.088-35.84 0-13.312 5.12-21.504 10.24-26.624 4.608-4.608 12.8-9.216 25.088-9.216 10.752 0 19.456 3.584 25.088 9.216 7.68 7.68 12.288 22.016 12.288 34.304zM86.016 108.8c0 13.824 11.776 25.6 25.6 25.6s25.6-11.776 25.6-25.6-11.776-25.6-25.6-25.6-25.6 11.776-25.6 25.6z" />
<glyph unicode="&#x40;" glyph-name="at" horiz-adv-x="376" d="M245.76 307.968l6.656 32.768h26.624c-14.336-60.416-23.040-117.248-24.064-127.488v-4.096c0.512-7.168 2.048-23.552 18.944-23.552 24.064 0 57.856 36.864 57.856 97.792 0 77.312-61.952 127.488-136.704 127.488-84.992 0-152.064-67.584-152.064-152.576 0-64.512 38.912-151.040 156.672-151.040 24.064 0 61.952 2.56 107.008 23.552l7.68-23.552c-41.472-19.968-84.48-24.576-115.2-24.576-105.984 0-182.272 72.192-182.272 176.128 0 98.816 77.824 176.64 177.664 176.64 87.040 0 161.792-59.904 161.792-151.552 0-71.168-43.008-120.832-83.456-120.832-20.992 0-35.84 13.824-37.376 34.304-4.608-7.168-25.088-36.352-64-36.352-44.032 0-71.68 36.864-71.68 82.432 0 54.784 36.352 103.936 89.6 103.936 31.232 0 49.152-18.432 56.32-39.424zM177.152 188.672c36.352 0 58.88 39.936 58.88 81.408 0 35.84-22.016 49.664-44.032 49.664-35.84 0-62.464-36.864-62.464-75.264 0-36.864 23.552-55.808 47.616-55.808z" />
<glyph unicode="&#x41;" glyph-name="A" horiz-adv-x="319" d="M272.384 89.344l-39.936 96.256h-145.408l-40.96-96.256h-41.984l157.184 357.888 153.088-357.888h-41.984zM101.888 221.44h115.712l-57.344 136.704z" />
<glyph unicode="&#x42;" glyph-name="B" horiz-adv-x="272" d="M44.032 430.848h61.44c18.944 0 53.248-1.536 78.336-21.504 10.752-8.192 30.72-29.184 30.72-70.656 0-16.896-3.584-46.592-33.792-67.072 47.616-11.776 65.024-53.248 65.024-86.016s-16.384-59.392-34.816-73.728c-27.136-21.504-58.368-22.528-81.92-22.528h-84.992v341.504zM81.92 395.008v-114.176h28.672c19.968 0 67.072 4.096 67.072 56.832 0 56.32-55.296 57.344-66.048 57.344h-29.696zM81.92 247.040v-121.856h43.52c22.016 0 43.52 1.536 59.904 14.336 13.312 9.728 22.528 26.624 22.528 47.104 0 27.136-15.872 43.008-29.184 50.176-12.8 7.168-30.72 10.24-57.856 10.24h-38.912z" />
<glyph unicode="&#x43;" glyph-name="C" horiz-adv-x="331" d="M305.152 402.688v-47.104c-10.752 10.752-27.136 23.552-44.544 31.744-17.92 8.192-38.912 13.312-58.88 13.312-78.848 0-137.216-63.488-137.216-142.336 0-92.672 75.264-139.264 137.728-139.264 23.040 0 45.568 6.656 63.488 15.872 19.456 9.728 33.28 22.528 39.424 28.672v-47.104c-37.888-27.136-77.312-33.28-102.912-33.28-101.376 0-176.64 76.8-176.64 175.616 0 101.888 76.288 177.664 178.688 177.664 20.48 0 59.904-2.56 100.864-33.792z" />
<glyph unicode="&#x44;" glyph-name="D" horiz-adv-x="324" d="M44.032 89.344v341.504h69.632c34.304 0 82.944-3.584 125.952-39.936 31.232-26.112 58.368-69.632 58.368-131.072 0-71.68-35.328-110.080-59.904-131.072-31.232-26.624-64-39.424-124.928-39.424h-69.12zM81.92 395.008v-269.824h33.28c27.136 0 64.512 3.072 97.792 30.72 25.6 21.504 46.080 55.296 46.080 103.936 0 81.92-57.344 135.168-143.872 135.168h-33.28z" />
<glyph unicode="&#x45;" glyph-name="E" horiz-adv-x="247" d="M221.184 430.848v-35.84h-139.264v-101.376h135.168v-35.84h-135.168v-132.608h139.264v-35.84h-177.152v341.504h177.152z" />
<glyph unicode="&#x46;" glyph-name="F" horiz-adv-x="222" d="M199.68 430.848v-35.84h-117.76v-100.864h113.664v-35.84h-113.664v-168.96h-37.888v341.504h155.648z" />
<glyph unicode="&#x47;" glyph-name="G" horiz-adv-x="388" d="M220.16 225.024v35.84h142.336v-8.192c0-37.888-11.264-78.848-32.768-108.032-10.24-13.824-48.64-61.44-126.976-61.44-101.376 0-177.152 77.312-177.152 176.64s76.288 176.64 178.176 176.64c32.768 0 71.168-8.192 104.448-33.792 15.36-11.776 29.696-27.136 39.424-40.448l-28.16-25.6c-9.728 13.824-20.992 26.112-32.256 35.328-16.384 13.312-41.984 28.672-82.944 28.672-82.432 0-139.776-61.952-139.776-141.312 0-93.184 74.24-140.288 138.752-140.288 45.568 0 84.992 23.040 104.448 57.344 6.144 10.752 12.8 27.136 13.824 48.64h-101.376z" />
<glyph unicode="&#x48;" glyph-name="H" horiz-adv-x="339" d="M81.92 430.848v-138.752h175.104v138.752h37.888v-341.504h-37.888v166.912h-175.104v-166.912h-37.888v341.504h37.888z" />
<glyph unicode="&#x49;" glyph-name="I" horiz-adv-x="126" d="M44.032 430.848h37.888v-341.504h-37.888v341.504z" />
<glyph unicode="&#x4a;" glyph-name="J" horiz-adv-x="157" d="M74.752 430.848h37.888v-245.76c0-27.648-0.512-58.88-20.992-80.384-11.776-12.8-29.184-21.504-54.272-21.504-24.576 0-45.568 7.68-60.928 25.088l20.992 29.696c11.264-12.288 26.112-18.944 38.912-18.944 10.24 0 19.456 3.584 25.6 9.728 12.8 12.8 12.8 34.304 12.8 55.296v246.784z" />
<glyph unicode="&#x4b;" glyph-name="K" horiz-adv-x="291" d="M81.92 430.848v-146.432l145.408 146.432h51.2l-159.744-159.232 164.864-182.272h-52.224l-139.776 156.672-9.728-9.728v-146.944h-37.888v341.504h37.888z" />
<glyph unicode="&#x4c;" glyph-name="L" horiz-adv-x="184" d="M44.032 430.848h37.888v-305.664h94.208v-35.84h-132.096v341.504z" />
<glyph unicode="&#x4d;" glyph-name="M" horiz-adv-x="442" d="M71.168 89.344h-38.912l56.832 360.448 131.072-288.256 133.632 288.768 53.248-360.96h-38.912l-32.256 237.568-116.224-251.904-114.688 251.904z" />
<glyph unicode="&#x4e;" glyph-name="N" horiz-adv-x="392" d="M81.92 89.344h-37.888v355.84l266.24-279.040v264.704h37.888v-356.864l-266.24 279.040v-263.68z" />
<glyph unicode="&#x4f;" glyph-name="O" horiz-adv-x="407" d="M203.264 83.2c-98.816 0-177.664 75.264-177.664 176.64 0 101.888 79.36 176.64 177.664 176.64s177.664-74.752 177.664-176.64c0-101.376-78.848-176.64-177.664-176.64zM203.264 400.64c-76.8 0-138.752-62.464-138.752-140.8s61.952-140.8 138.752-140.8 138.752 62.464 138.752 140.8-61.952 140.8-138.752 140.8z" />
<glyph unicode="&#x50;" glyph-name="P" horiz-adv-x="234" d="M44.032 430.848h61.952c34.304 0 62.976-4.096 86.016-24.064 25.088-21.504 31.232-51.712 31.232-73.216 0-48.128-30.208-95.744-108.032-95.744h-33.28v-148.48h-37.888v341.504zM81.92 395.008v-121.344h31.232c45.056 0 72.192 22.528 72.192 61.952 0 54.272-50.688 59.392-75.264 59.392h-28.16z" />
<glyph unicode="&#x51;" glyph-name="Q" horiz-adv-x="407" d="M333.824 85.76l-27.648 28.672c-14.336-9.728-48.64-31.232-102.912-31.232-98.304 0-177.664 75.264-177.664 176.64 0 101.888 79.36 176.64 177.664 176.64 97.792 0 177.664-74.752 177.664-176.64 0-62.464-28.16-101.376-48.128-122.368l50.176-51.712h-49.152zM245.76 226.56l59.904-61.44c12.8 13.824 36.352 44.544 36.352 94.72 0 78.336-62.464 140.8-138.752 140.8-76.8 0-138.752-62.464-138.752-140.8s61.952-140.8 138.752-140.8c21.504 0 49.152 5.12 75.776 22.528l-82.432 84.992h49.152z" />
<glyph unicode="&#x52;" glyph-name="R" horiz-adv-x="257" d="M44.032 430.848h54.784c23.040 0 57.344-1.536 82.944-18.944 19.968-13.312 37.376-39.424 37.376-75.776 0-52.224-34.304-90.624-86.016-94.208l108.544-152.576h-46.080l-103.936 149.504h-9.728v-149.504h-37.888v341.504zM81.92 395.008v-122.368h24.064c47.104 0 75.264 22.528 75.264 62.464 0 18.944-5.632 37.888-27.136 50.176-15.36 8.704-32.768 9.728-49.152 9.728h-23.040z" />
<glyph unicode="&#x53;" glyph-name="S" horiz-adv-x="265" d="M226.816 383.232l-30.208-19.968c-4.608 9.216-12.288 19.456-19.968 25.6-6.656 5.12-18.944 11.776-38.4 11.776-33.792 0-57.344-20.992-57.344-52.736 0-13.312 3.584-20.992 12.8-29.696 10.24-10.24 23.040-15.872 35.84-21.504l32.768-14.336c19.968-8.704 38.4-17.92 52.736-32.256 17.408-17.408 24.576-37.376 24.576-61.952 0-62.976-46.592-104.96-108.032-104.96-22.528 0-50.688 4.608-74.24 27.648-16.896 16.384-27.136 39.936-31.744 60.416l36.864 10.24c2.56-17.92 10.752-33.28 20.48-43.52 14.848-14.848 31.744-18.944 49.152-18.944 46.592 0 68.608 33.28 68.608 67.584 0 15.36-4.608 28.672-16.896 39.936-9.728 9.216-23.040 15.36-40.96 23.552l-30.72 14.336c-13.312 6.144-30.208 13.312-45.568 28.16-14.848 14.336-23.552 30.208-23.552 55.808 0 52.736 40.448 88.064 95.744 88.064 20.992 0 37.888-4.096 54.784-15.36 13.824-9.216 25.6-23.040 33.28-37.888z" />
<glyph unicode="&#x54;" glyph-name="T" horiz-adv-x="218" d="M210.944 395.008h-82.944v-305.664h-37.888v305.664h-82.944v35.84h203.776v-35.84z" />
<glyph unicode="&#x55;" glyph-name="U" horiz-adv-x="331" d="M81.92 430.848v-209.408c0-28.672 0-59.904 27.136-82.944 13.824-11.776 37.376-19.456 56.32-19.456s42.496 7.68 56.32 19.456c27.136 23.040 27.136 54.272 27.136 82.944v209.408h37.888v-219.648c0-28.672-3.072-56.32-21.504-81.92-20.48-28.16-56.32-46.080-99.84-46.080s-79.36 17.92-99.84 46.080c-18.432 25.6-21.504 53.248-21.504 81.92v219.648h37.888z" />
<glyph unicode="&#x56;" glyph-name="V" horiz-adv-x="285" d="M4.096 430.848h41.984l96.256-260.608 96.256 260.608h41.984l-138.24-361.984z" />
<glyph unicode="&#x57;" glyph-name="W" horiz-adv-x="491" d="M4.096 430.848h41.984l90.112-256 107.008 273.408 101.376-273.408 99.84 256h41.984l-143.36-359.424-100.352 273.408-107.52-273.408z" />
<glyph unicode="&#x58;" glyph-name="X" horiz-adv-x="258" d="M7.168 89.344l100.864 176.64-91.648 164.864h43.008l70.656-128.512 72.704 128.512h43.008l-93.696-164.864 98.816-176.64h-43.008l-78.336 140.288-79.36-140.288h-43.008z" />
<glyph unicode="&#x59;" glyph-name="Y" horiz-adv-x="272" d="M116.224 89.344v146.944l-112.128 194.56h44.032l87.040-152.576 88.064 152.576h44.032l-113.152-194.56v-146.944h-37.888z" />
<glyph unicode="&#x5a;" glyph-name="Z" horiz-adv-x="275" d="M262.144 430.848l-186.368-305.664h181.248v-35.84h-244.736l186.368 305.664h-162.304v35.84h225.792z" />
<glyph unicode="&#x5b;" glyph-name="bracketleft" horiz-adv-x="149" d="M126.976 428.8h-49.152v-392.704h49.152v-33.792h-86.016v460.288h86.016v-33.792z" />
<glyph unicode="&#x5c;" glyph-name="backslash" horiz-adv-x="306" d="M305.664 2.304l-29.696-14.336-265.728 474.624 29.696 15.36z" />
<glyph unicode="&#x5d;" glyph-name="bracketright" horiz-adv-x="149" d="M21.504 36.096h49.152v392.704h-49.152v33.792h86.016v-460.288h-86.016v33.792z" />
<glyph unicode="&#x5e;" glyph-name="asciicircum" d="M128 402.688l-74.752-126.464h-39.936l90.624 154.624h48.128l90.624-154.624h-39.936z" />
<glyph unicode="&#x5f;" glyph-name="underscore" d="M0 21.76v32.768h256v-32.768h-256z" />
<glyph unicode="&#x60;" glyph-name="grave" d="M127.488 343.808l-69.12 69.12 37.888 17.408 53.76-74.24z" />
<glyph unicode="&#x61;" glyph-name="a" horiz-adv-x="270" d="M197.632 271.616v30.208h36.864v-212.48h-36.864v29.696c-12.288-15.872-35.328-35.84-72.704-35.84-53.76 0-103.424 37.888-103.424 112.64 0 73.216 49.152 111.104 103.424 111.104 40.96 0 62.976-22.528 72.704-35.328zM129.024 274.176c-36.352 0-69.632-26.624-69.632-78.336 0-45.568 25.6-79.872 69.632-79.872 45.056 0 70.656 37.376 70.656 79.36 0 54.784-37.888 78.848-70.656 78.848z" />
<glyph unicode="&#x62;" glyph-name="b" horiz-adv-x="270" d="M71.68 119.040v-29.696h-36.864v373.248h36.864v-190.464c25.088 31.232 57.344 34.816 72.704 34.816 66.56 0 103.424-55.296 103.424-112.64 0-58.368-37.376-111.104-101.888-111.104-34.304 0-58.368 15.36-74.24 35.84zM140.8 115.968c43.008 0 69.12 35.84 69.12 78.336 0 52.224-35.328 79.872-69.632 79.872s-70.656-28.16-70.656-79.36c0-43.52 27.648-78.848 71.168-78.848z" />
<glyph unicode="&#x63;" glyph-name="c" horiz-adv-x="225" d="M201.216 286.464v-44.032c-19.456 24.576-47.616 31.744-66.56 31.744-39.424 0-75.264-27.648-75.264-79.36s36.864-78.848 74.752-78.848c22.016 0 49.152 9.728 68.608 33.28v-44.032c-23.040-16.896-47.616-22.016-67.584-22.016-66.048 0-113.664 47.104-113.664 111.104 0 65.024 48.128 112.64 113.664 112.64 33.792 0 55.808-13.312 66.048-20.48z" />
<glyph unicode="&#x64;" glyph-name="d" horiz-adv-x="270" d="M197.632 271.616v190.976h36.864v-373.248h-36.864v29.696c-12.288-15.872-35.328-35.84-72.704-35.84-53.76 0-103.424 37.888-103.424 112.64 0 73.216 49.152 111.104 103.424 111.104 40.96 0 62.976-22.528 72.704-35.328zM129.024 274.176c-36.352 0-69.632-26.624-69.632-78.336 0-45.568 25.6-79.872 69.632-79.872 45.056 0 70.656 37.376 70.656 79.36 0 54.784-37.888 78.848-70.656 78.848z" />
<glyph unicode="&#x65;" glyph-name="e" horiz-adv-x="247" d="M192.512 160.512l30.72-16.896c-6.144-11.776-15.36-24.576-26.112-34.304-19.456-17.408-43.52-26.112-70.656-26.112-51.2 0-104.96 32.256-104.96 111.104 0 63.488 38.912 112.64 102.912 112.64 41.472 0 67.584-20.48 80.384-38.912 13.312-18.944 20.992-51.712 19.968-79.872h-165.376c0.512-44.032 30.72-72.192 67.584-72.192 17.408 0 31.232 5.12 43.52 15.36 9.728 8.192 17.408 18.944 22.016 29.184zM61.952 218.88h124.928c-6.144 33.28-31.232 55.296-62.464 55.296s-56.832-23.552-62.464-55.296z" />
<glyph unicode="&#x66;" glyph-name="f" horiz-adv-x="123" d="M124.928 268.032h-52.224v-178.688h-36.864v178.688h-20.48v33.792h20.48v92.672c0 19.456 1.536 44.032 20.48 59.904 10.24 8.704 25.6 13.824 42.496 13.824 13.312 0 22.016-3.072 26.112-4.608v-35.84c-7.68 3.072-16.384 4.608-24.064 4.608-8.192 0-17.92-2.048-23.552-11.264-4.608-7.68-4.608-19.456-4.608-30.72v-88.576h52.224v-33.792z" />
<glyph unicode="&#x67;" glyph-name="g" horiz-adv-x="270" d="M197.632 271.616v30.208h36.864v-207.36c0-23.040 0-55.808-20.48-83.456-15.872-21.504-45.056-39.424-84.992-39.424-36.352 0-61.44 14.336-75.776 28.672s-27.648 37.376-27.648 68.608h36.352c0-17.92 7.168-33.792 16.384-44.032 15.36-16.896 34.816-20.48 51.2-20.48 26.112 0 44.032 9.216 56.32 29.696 10.752 17.408 11.776 36.352 11.776 54.272v30.72c-12.288-15.872-35.328-35.84-72.704-35.84-31.232 0-56.32 12.288-72.704 28.672-14.336 14.336-30.72 40.96-30.72 83.968 0 41.472 15.36 67.072 30.72 82.432 17.92 17.408 44.032 28.672 72.704 28.672 31.232 0 55.808-13.312 72.704-35.328zM129.024 274.176c-22.528 0-37.888-9.728-48.128-19.968-17.92-18.432-21.504-40.96-21.504-58.368 0-18.432 3.584-43.52 24.064-62.464 11.776-10.752 26.112-17.408 45.568-17.408s34.816 6.144 46.592 17.92c14.336 13.824 24.064 36.352 24.064 61.44s-9.216 47.104-22.528 59.904c-11.776 11.776-29.184 18.944-48.128 18.944z" />
<glyph unicode="&#x68;" glyph-name="h" horiz-adv-x="241" d="M34.816 89.344v373.248h36.864v-185.344c6.656 8.704 25.6 29.696 60.928 29.696 25.088 0 48.128-10.24 60.928-29.184 10.752-15.872 12.288-33.28 12.288-56.832v-131.584h-36.864v130.56c0 12.8-1.024 27.648-9.728 38.912-7.168 9.216-18.432 15.36-34.816 15.36-12.8 0-26.624-3.584-37.376-16.384-14.336-16.896-15.36-41.984-15.36-57.344v-111.104h-36.864z" />
<glyph unicode="&#x69;" glyph-name="i" horiz-adv-x="107" d="M34.816 301.824h36.864v-212.48h-36.864v212.48zM27.136 382.208c0 14.336 11.776 26.112 26.112 26.112s26.112-11.776 26.112-26.112-11.776-26.112-26.112-26.112-26.112 11.776-26.112 26.112z" />
<glyph unicode="&#x6a;" glyph-name="j" horiz-adv-x="107" d="M34.816 301.824h36.864v-330.24h-36.864v330.24zM27.136 382.208c0 14.336 11.776 26.112 26.112 26.112s26.112-11.776 26.112-26.112-11.776-26.112-26.112-26.112-26.112 11.776-26.112 26.112z" />
<glyph unicode="&#x6b;" glyph-name="k" horiz-adv-x="216" d="M34.816 462.592h36.864v-239.616l77.824 78.848h48.128l-91.136-91.136 107.52-121.344h-48.128l-84.992 96.768-9.216-9.216v-87.552h-36.864v373.248z" />
<glyph unicode="&#x6c;" glyph-name="l" horiz-adv-x="107" d="M34.816 462.592h36.864v-373.248h-36.864v373.248z" />
<glyph unicode="&#x6d;" glyph-name="m" horiz-adv-x="351" d="M34.816 89.344v212.48h36.864v-22.528c11.776 17.408 30.208 27.648 52.736 27.648 38.4 0 53.76-27.136 57.856-34.304 20.48 32.256 49.664 34.304 64 34.304 62.976 0 69.12-52.736 69.12-82.944v-134.656h-36.864v129.024c0 24.064-3.072 55.808-37.888 55.808-42.496 0-47.104-40.96-47.104-66.56v-118.272h-36.864v125.952c0 14.848 0.512 58.88-38.4 58.88-41.984 0-46.592-43.52-46.592-69.12v-115.712h-36.864z" />
<glyph unicode="&#x6e;" glyph-name="n" horiz-adv-x="241" d="M34.816 89.344v212.48h36.864v-24.576c6.656 8.704 25.6 29.696 60.928 29.696 25.088 0 48.128-10.24 60.928-29.184 10.752-15.872 12.288-33.28 12.288-56.832v-131.584h-36.864v130.56c0 12.8-1.024 27.648-9.728 38.912-7.168 9.216-18.432 15.36-34.816 15.36-12.8 0-26.624-3.584-37.376-16.384-14.336-16.896-15.36-41.984-15.36-57.344v-111.104h-36.864z" />
<glyph unicode="&#x6f;" glyph-name="o" horiz-adv-x="269" d="M134.144 83.2c-64.512 0-112.64 47.104-112.64 111.616s47.616 112.128 112.64 112.128 112.64-47.616 112.64-112.128-48.128-111.616-112.64-111.616zM134.144 274.176c-38.912 0-74.752-27.648-74.752-79.36 0-52.224 36.864-78.848 74.752-78.848 38.4 0 74.752 27.136 74.752 78.848 0 52.224-35.84 79.36-74.752 79.36z" />
<glyph unicode="&#x70;" glyph-name="p" horiz-adv-x="270" d="M71.68 119.040v-147.456h-36.864v330.24h36.864v-29.696c25.088 31.232 57.344 34.816 72.704 34.816 66.56 0 103.424-55.296 103.424-112.64 0-58.368-37.376-111.104-101.888-111.104-34.304 0-58.368 15.36-74.24 35.84zM140.8 115.968c43.008 0 69.12 35.84 69.12 78.336 0 52.224-35.328 79.872-69.632 79.872s-70.656-28.16-70.656-79.36c0-43.52 27.648-78.848 71.168-78.848z" />
<glyph unicode="&#x71;" glyph-name="q" horiz-adv-x="270" d="M197.632 271.616v30.208h36.864v-330.24h-36.864v147.456c-12.288-15.872-35.328-35.84-72.704-35.84-53.76 0-103.424 37.888-103.424 112.64 0 73.216 49.152 111.104 103.424 111.104 40.96 0 62.976-22.528 72.704-35.328zM129.024 274.176c-36.352 0-69.632-26.624-69.632-78.336 0-45.568 25.6-79.872 69.632-79.872 45.056 0 70.656 37.376 70.656 79.36 0 54.784-37.888 78.848-70.656 78.848z" />
<glyph unicode="&#x72;" glyph-name="r" horiz-adv-x="152" d="M34.816 89.344v212.48h36.864v-23.040c3.584 5.632 19.456 28.16 48.128 28.16 11.264 0 23.552-4.096 32.768-8.704l-17.408-33.28c-8.192 5.632-15.872 7.168-21.504 7.168-14.848 0-24.064-6.144-29.696-13.312-6.144-8.192-12.288-22.528-12.288-57.344v-112.128h-36.864z" />
<glyph unicode="&#x73;" glyph-name="s" horiz-adv-x="180" d="M152.576 268.544l-30.208-15.872c-5.12 12.288-15.872 21.504-29.696 21.504-13.312 0-25.6-7.68-25.6-24.064 0-15.36 10.24-19.968 34.304-30.208 30.72-12.8 45.056-22.528 53.248-32.768 9.216-11.264 11.264-22.528 11.264-34.304 0-44.544-32.256-69.632-73.216-69.632-8.704 0-56.32 1.024-74.24 54.272l31.744 13.312c4.096-11.264 16.384-34.816 43.008-34.816 24.064 0 34.816 17.92 34.816 33.792 0 19.968-14.336 26.624-34.304 35.328-25.6 11.264-41.984 19.456-51.712 31.232-8.192 10.24-9.728 20.48-9.728 31.232 0 37.376 26.112 59.392 61.952 59.392 11.264 0 41.472-2.048 58.368-38.4z" />
<glyph unicode="&#x74;" glyph-name="t" horiz-adv-x="110" d="M109.568 268.032h-36.864v-178.688h-36.864v178.688h-22.528v33.792h22.528v76.8h36.864v-76.8h36.864v-33.792z" />
<glyph unicode="&#x75;" glyph-name="u" horiz-adv-x="239" d="M71.68 301.824v-123.904c0-14.848 0-32.256 10.24-45.568 5.632-7.168 16.896-16.384 37.376-16.384s31.744 9.216 37.376 16.384c10.24 13.312 10.24 30.72 10.24 45.568v123.904h36.864v-128c0-26.112-2.56-45.568-19.456-64-18.944-19.968-44.032-26.624-65.024-26.624s-46.080 6.656-65.024 26.624c-16.896 18.432-19.456 37.888-19.456 64v128h36.864z" />
<glyph unicode="&#x76;" glyph-name="v" horiz-adv-x="217" d="M4.096 301.824h40.96l63.488-143.36 63.488 143.36h40.96l-104.448-226.304z" />
<glyph unicode="&#x77;" glyph-name="w" horiz-adv-x="349" d="M4.096 301.824h40.96l62.976-144.384 66.56 160.768 66.048-160.768 63.488 144.384h40.96l-105.472-227.328-65.536 158.72-65.536-158.72z" />
<glyph unicode="&#x78;" glyph-name="x" horiz-adv-x="233" d="M4.096 89.344l90.624 113.664-77.312 98.816h45.056l54.784-72.192 55.808 72.192h45.056l-77.824-99.328 88.064-113.152h-45.056l-67.072 86.528-67.072-86.528h-45.056z" />
<glyph unicode="&#x79;" glyph-name="y" horiz-adv-x="236" d="M34.304-28.416l67.584 137.728-97.792 192.512h41.984l75.264-152.064 69.12 152.064h40.96l-156.16-330.24h-40.96z" />
<glyph unicode="&#x7a;" glyph-name="z" horiz-adv-x="236" d="M231.424 301.824l-153.6-178.688h147.456v-33.792h-221.184l153.6 178.688h-123.904v33.792h197.632z" />
<glyph unicode="&#x7b;" glyph-name="braceleft" horiz-adv-x="257" d="M140.8 386.816v-96.256c0-12.8-1.536-27.136-6.656-36.352-5.12-8.704-14.848-16.896-24.576-21.504 9.728-4.608 19.456-12.8 24.576-21.504 5.12-9.216 6.656-23.552 6.656-36.352v-96.768c0-11.776 0-26.112 9.728-35.328 9.216-8.704 26.624-9.216 31.744-9.216h7.68v-31.232h-13.824c-14.848 0-33.792 1.024-47.616 10.24-22.528 14.848-24.576 39.936-24.576 59.392v100.352c0 12.8-2.048 23.552-6.656 31.232-6.656 10.752-15.872 13.824-22.528 14.336v29.696c6.656 0.512 15.872 3.584 22.528 14.336 4.608 7.68 6.656 18.432 6.656 31.232v99.84c0 19.456 2.048 44.544 24.576 59.392 13.824 9.216 32.768 10.24 47.616 10.24h13.824v-31.232h-7.68c-5.12 0-22.528-0.512-31.744-9.216-9.728-9.216-9.728-23.552-9.728-35.328z" />
<glyph unicode="&#x7c;" glyph-name="bar" d="M109.568-38.656v512h36.864v-512h-36.864z" />
<glyph unicode="&#x7d;" glyph-name="braceright" horiz-adv-x="257" d="M115.712 290.56v96.256c0 11.776 0 26.112-9.728 35.328-9.216 8.704-26.624 9.216-31.744 9.216h-7.68v31.232h13.824c14.848 0 33.792-1.024 47.616-10.24 22.528-14.848 24.576-39.936 24.576-59.392v-99.84c0-12.8 2.048-23.552 6.656-31.232 6.656-10.752 15.872-13.824 22.528-14.336v-29.696c-6.656-0.512-15.872-3.584-22.528-14.336-4.608-7.68-6.656-18.432-6.656-31.232v-100.352c0-19.456-2.048-44.544-24.576-59.392-13.824-9.216-32.768-10.24-47.616-10.24h-13.824v31.232h7.68c5.12 0 22.528 0.512 31.744 9.216 9.728 9.216 9.728 23.552 9.728 35.328v96.768c0 12.8 1.536 27.136 6.656 36.352 5.12 8.704 14.848 16.896 24.576 21.504-9.728 4.608-19.456 12.8-24.576 21.504-5.12 9.216-6.656 23.552-6.656 36.352z" />
<glyph unicode="&#x7e;" glyph-name="asciitilde" d="M228.352 274.176l22.528-13.312c-5.632-12.8-14.848-27.136-25.6-37.376-12.288-12.288-28.16-19.968-49.152-19.968-19.968 0-37.376 9.216-55.296 17.408-23.040 10.752-35.328 16.384-48.64 16.384-10.24 0-18.944-3.584-26.624-10.24-7.168-6.144-13.824-17.408-17.92-26.624l-22.528 13.312c6.144 13.312 16.896 31.232 24.576 39.936 12.288 13.824 27.136 19.456 44.544 19.456 18.944 0 36.352-7.168 57.856-17.408 15.36-7.168 32.768-16.384 48.64-16.384 11.776 0 22.528 3.584 31.232 12.288 6.656 6.144 12.8 15.36 16.384 22.528z" />
<glyph unicode="&#xa1;" glyph-name="exclamdown" horiz-adv-x="144" d="M53.248 243.968h36.864v-272.384h-36.864v272.384zM97.28 292.608c0-13.824-11.776-25.6-25.6-25.6s-25.6 11.776-25.6 25.6 11.776 25.6 25.6 25.6 25.6-11.776 25.6-25.6z" />
<glyph unicode="&#xa2;" glyph-name="cent" horiz-adv-x="291" d="M176.128 424.704v-49.664c19.968-2.56 38.4-9.728 53.76-19.968v-44.032c-10.24 12.288-28.16 28.16-53.76 31.232v-156.672c25.6 3.072 45.056 19.968 55.296 32.256v-44.032c-9.728-7.168-28.16-18.432-55.296-21.504v-55.808h-30.72v56.832c-24.064 3.584-48.128 14.848-65.024 31.232-15.872 15.36-30.208 40.448-30.208 78.336 0 41.472 17.408 66.56 31.744 80.896 11.264 11.264 32.256 26.112 63.488 30.208v50.688h30.72zM145.408 186.112v154.624c-16.896-2.048-28.16-10.24-35.328-17.408-13.312-13.312-22.016-34.304-22.016-59.904 0-23.040 6.656-43.008 22.528-58.88 12.288-12.288 25.088-16.384 34.816-18.432z" />
<glyph unicode="&#xa3;" glyph-name="sterling" horiz-adv-x="291" d="M254.976 323.84h-37.376v5.12c0 15.36-2.048 37.888-18.432 54.272-8.192 8.192-22.016 16.384-43.52 16.384-19.968 0-33.792-7.168-42.496-15.872-10.752-10.24-18.944-26.624-18.944-45.056 0-25.6 13.312-47.104 27.136-74.752l7.168-14.336h64.512v-28.672h-51.712c4.096-10.752 5.632-21.504 5.632-31.232 0-15.36-5.12-32.768-14.848-48.128l30.208-11.264c15.872-6.144 26.624-10.752 35.84-10.752s18.432 3.072 27.136 11.264c6.656 6.656 12.288 15.36 15.872 24.064l31.232-18.432c-6.656-15.872-15.872-27.136-25.088-34.816-13.824-11.776-27.136-17.92-45.568-17.92-16.896 0-29.696 3.584-44.032 9.216l-19.968 7.68c-21.504 8.192-32.768 9.728-38.4 9.728-6.656 0-17.408-1.536-27.136-9.216-8.704-6.656-14.336-15.872-15.36-18.432l-29.184 19.968c6.656 10.24 16.384 22.016 24.064 28.16 14.848 12.288 29.696 15.36 41.984 15.36 8.192 12.288 14.336 29.184 14.336 44.032 0 2.048 0 15.36-6.656 30.72h-57.344v28.672h44.032l-10.24 18.944c-12.8 23.552-22.528 44.032-22.528 71.168 0 24.576 8.704 50.176 27.136 68.608 13.312 13.312 35.84 27.136 73.728 27.136 34.304 0 55.808-13.312 68.096-25.6 16.896-16.384 30.72-45.568 30.72-81.408v-4.608z" />
<glyph unicode="&#xa4;" glyph-name="currency" horiz-adv-x="300" d="M27.136 414.976l48.64-48.128c25.088 21.504 54.784 26.112 74.24 26.112s49.152-4.608 74.24-26.112l48.64 48.128 20.48-20.48-48.64-48.64c21.504-25.088 26.112-53.76 26.112-72.704s-4.608-47.616-26.112-72.704l48.128-48.128-20.48-20.48-48.128 47.616c-25.088-21.504-54.784-26.112-74.24-26.112s-49.152 4.608-74.24 26.112l-48.128-47.616-20.48 20.48 48.128 48.128c-21.504 25.088-26.112 53.76-26.112 72.704s4.608 47.616 26.112 72.704l-48.64 48.64zM150.016 186.112c48.64 0 86.016 35.84 86.016 87.040s-37.376 87.040-86.016 87.040-86.016-35.84-86.016-87.040 37.376-87.040 86.016-87.040z" />
<glyph unicode="&#xa5;" glyph-name="yen" horiz-adv-x="291" d="M265.216 285.952h-72.192l-26.112-45.056h98.304v-28.672h-101.376v-122.88h-37.888v122.88h-99.84v28.672h96.768l-26.112 45.056h-70.656v28.672h54.272l-67.072 116.224h44.544l87.040-152.576 88.064 152.576h44.544l-68.096-116.224h55.808v-28.672z" />
<glyph unicode="&#xa6;" glyph-name="brokenbar" d="M109.568 289.024v184.32h36.864v-184.32h-36.864zM109.568-38.656v184.32h36.864v-184.32h-36.864z" />
<glyph unicode="&#xa7;" glyph-name="section" horiz-adv-x="291" d="M237.568 365.824h-36.864v2.56c0 19.968-6.144 37.888-16.896 48.128s-23.552 12.288-33.28 12.288c-15.36 0-28.16-4.608-38.4-14.336-9.728-8.704-14.848-19.968-14.848-33.792 0-12.288 4.096-22.528 13.312-31.744 7.168-7.168 18.432-14.848 44.544-24.576 19.456-7.168 44.032-14.848 61.44-31.744s22.528-35.84 22.528-56.832c0-16.384-2.048-33.28-14.336-50.688-13.312-18.944-34.304-30.208-37.376-31.744 13.824-6.656 25.6-16.896 32.768-28.16 7.68-11.776 10.752-24.576 10.752-37.888 0-26.112-10.24-46.592-23.552-59.904-21.504-21.504-47.104-25.088-66.048-25.088-32.256 0-52.736 11.776-65.536 25.6-23.040 24.576-21.504 59.904-22.528 69.12h36.864c0-15.872 5.632-36.352 15.872-47.104 5.12-5.632 16.384-13.824 36.352-13.824 11.776 0 25.6 2.56 36.352 13.312 8.704 8.192 14.336 21.504 14.336 36.352 0 12.8-5.12 23.552-12.288 31.232-9.216 9.728-22.528 14.848-46.592 24.064-26.624 10.24-46.080 17.408-60.928 33.792-11.776 12.288-21.504 31.744-21.504 59.392 0 16.384 4.096 31.232 13.824 46.592 10.24 15.36 22.528 25.088 37.888 31.232-8.192 4.608-18.432 11.264-28.16 23.040-11.264 13.824-14.848 26.112-14.848 41.472 0 27.136 11.264 49.152 26.112 62.976s36.864 23.040 63.488 23.040c23.040 0 43.008-6.144 60.416-22.528 25.6-23.552 27.136-49.152 27.136-71.68v-2.56zM145.408 288.512c-17.408 0-30.72-6.656-39.936-15.872-7.68-7.68-15.872-20.48-15.872-39.936 0-21.504 9.216-33.792 15.872-39.936 9.728-9.216 25.088-15.872 39.936-15.872 15.36 0 30.208 5.632 39.936 15.872 9.216 9.216 15.872 23.552 15.872 39.936 0 14.336-5.632 29.696-16.384 40.448-7.168 7.168-19.968 15.36-39.424 15.36z" />
<glyph unicode="&#xa8;" glyph-name="dieresis" d="M57.856 370.944c0 13.824 11.776 25.6 25.6 25.6s25.6-11.776 25.6-25.6-11.776-25.6-25.6-25.6-25.6 11.776-25.6 25.6zM146.944 370.944c0 13.824 11.776 25.6 25.6 25.6s25.6-11.776 25.6-25.6-11.776-25.6-25.6-25.6-25.6 11.776-25.6 25.6z" />
<glyph unicode="&#xa9;" glyph-name="copyright" horiz-adv-x="379" d="M12.8 259.84c0 98.304 80.384 176.64 176.64 176.64s176.64-78.336 176.64-176.64c0-97.28-79.872-176.128-176.64-176.128s-176.64 78.848-176.64 176.128zM337.408 259.84c0 81.92-66.048 147.968-147.968 147.968s-147.968-66.048-147.968-147.968c0-81.408 66.048-147.456 147.968-147.456s147.968 66.048 147.968 147.456zM263.168 343.808v-40.96c-17.92 22.016-44.544 29.696-62.464 29.696-36.864 0-70.656-26.624-70.656-74.752 0-49.152 35.328-73.728 70.144-73.728 26.112 0 49.152 12.8 64.512 31.232v-41.472c-24.576-17.92-47.104-20.48-63.488-20.48-61.44 0-106.496 43.008-106.496 103.936 0 60.416 46.080 105.984 106.496 105.984 18.432 0 41.472-4.608 61.952-19.456z" />
<glyph unicode="&#xaa;" glyph-name="ordfeminine" horiz-adv-x="191" d="M135.168 410.368v17.408h26.112v-136.192h-26.112v16.384c-5.12-6.144-10.752-10.752-17.92-14.336-8.192-4.096-16.896-6.144-27.648-6.144-24.064 0-39.936 9.728-49.664 19.456-15.872 15.872-19.456 34.816-19.456 52.224 0 27.648 10.24 44.032 19.968 53.76 11.264 11.264 27.648 17.92 50.176 17.92 9.216 0 17.408-1.536 26.112-5.632 7.168-3.584 13.312-7.68 18.432-14.848zM91.648 408.32c-10.752 0-22.528-3.584-31.744-13.312-8.704-9.216-13.824-23.552-13.824-36.352 0-13.824 5.632-27.136 14.336-35.84 9.216-8.704 20.992-12.8 31.744-12.8 12.8 0 23.552 5.632 31.232 13.312 8.192 8.192 13.312 20.992 13.312 35.84 0 13.824-5.12 27.136-13.824 36.352-7.68 7.68-18.944 12.8-31.232 12.8zM25.6 259.84h135.68v-21.504h-135.68v21.504z" />
<glyph unicode="&#xab;" glyph-name="guillemotleft" horiz-adv-x="220" d="M57.344 197.888l61.44-74.752-23.552-18.432-76.8 93.184 76.8 96.256 23.552-18.944zM133.12 197.888l61.44-74.752-23.552-18.432-76.8 93.184 76.8 96.256 23.552-18.944z" />
<glyph unicode="&#xac;" glyph-name="logicalnot" d="M239.104 89.344h-35.84v103.936h-186.368v32.768h222.208v-136.704z" />
<glyph unicode="&#xad;" glyph-name="uni00AD" horiz-adv-x="164" d="M25.6 179.456v37.888h112.64v-37.888h-112.64z" />
<glyph unicode="&#xae;" glyph-name="registered" horiz-adv-x="379" d="M13.824 259.328c0 100.352 75.264 175.616 175.616 175.616s175.616-75.264 175.616-175.616-75.264-175.616-175.616-175.616-175.616 75.264-175.616 175.616zM336.384 259.328c0 83.968-62.976 146.944-146.944 146.944s-146.944-62.976-146.944-146.944 62.976-146.944 146.944-146.944 146.944 62.976 146.944 146.944zM260.608 163.584h-34.816l-62.464 80.896v-80.896h-27.648v191.488h34.816c15.36 0 73.728-0.512 73.728-54.784 0-29.184-20.48-50.176-49.664-53.248zM163.328 330.496v-61.44h11.264c16.896 0 41.984 2.56 41.984 30.208 0 30.208-25.6 31.232-43.008 31.232h-10.24z" />
<glyph unicode="&#xaf;" glyph-name="macron" d="M50.688 352v30.72h154.624v-30.72h-154.624z" />
<glyph unicode="&#xb0;" glyph-name="degree" horiz-adv-x="253" d="M55.296 361.216c0 40.448 30.208 70.656 70.656 70.656s70.656-30.208 70.656-70.656-30.208-70.656-70.656-70.656-70.656 30.208-70.656 70.656zM80.896 361.216c0-31.744 25.088-47.104 45.056-47.104s45.056 15.36 45.056 47.104-25.088 47.104-45.056 47.104-45.056-15.36-45.056-47.104z" />
<glyph unicode="&#xb1;" glyph-name="plusminus" d="M16.896 265.984v33.792h92.672v87.552h36.864v-87.552h92.672v-33.792h-92.672v-87.552h-36.864v87.552h-92.672zM16.896 123.648v33.792h222.208v-33.792h-222.208z" />
<glyph unicode="&#xb2;" glyph-name="twosuperior" horiz-adv-x="179" d="M152.064 226.048h-135.68l74.752 86.528c11.264 13.312 16.384 18.944 23.552 29.696 4.608 6.656 11.264 16.896 11.264 31.232 0 19.968-14.336 36.864-38.912 36.864-12.288 0-25.6-4.608-33.28-17.408-4.096-7.168-6.144-16.384-6.144-24.576h-25.6c1.024 18.944 6.144 33.28 15.36 44.544 15.872 18.432 36.352 20.992 49.152 20.992 38.4 0 66.048-24.576 66.048-60.928 0-13.824-4.608-26.624-16.384-43.52-9.216-13.312-20.48-25.6-28.16-34.304l-39.424-45.568h83.456v-23.552z" />
<glyph unicode="&#xb3;" glyph-name="threesuperior" horiz-adv-x="179" d="M52.224 377.6h-25.6c0.512 10.24 3.584 23.040 9.728 32.768 13.824 21.504 36.864 23.552 49.664 23.552 46.592 0 59.392-33.28 59.392-54.784 0-8.704-2.56-34.304-26.624-45.568 22.528-8.704 29.696-30.208 29.696-49.664 0-33.792-24.064-61.44-65.024-61.44-33.792 0-51.712 17.92-58.88 35.328-3.072 7.68-4.608 16.896-5.12 24.064h25.6c0.512-8.192 3.584-15.36 7.168-20.48 5.632-7.68 15.36-15.36 30.208-15.36 23.552 0 39.424 16.896 39.424 38.912 0 17.408-9.216 28.672-19.968 33.28-6.656 3.072-15.872 4.096-23.552 3.584v23.552c7.68-0.512 17.408 1.024 23.552 4.096 8.704 4.608 16.896 14.848 16.896 29.184 0 15.872-9.216 31.744-32.768 31.744-14.336 0-22.016-5.632-26.112-10.752-4.608-5.632-7.168-15.36-7.68-22.016z" />
<glyph unicode="&#xb4;" glyph-name="acute" d="M159.744 430.336l37.888-17.408-68.608-69.12-23.040 12.288z" />
<glyph unicode="&#xb5;" glyph-name="mu" horiz-adv-x="268" d="M71.68-28.416h-36.864v330.24h36.864v-105.984c0-12.8 0.512-41.472 15.36-60.416 12.8-16.384 32.768-19.456 45.056-19.456 24.576 0 42.496 14.848 51.712 30.208 12.288 19.968 12.288 41.984 12.288 54.272v101.376h36.864v-212.48h-36.864v44.032c-10.24-28.16-32.768-50.176-65.024-50.176-38.912 0-55.808 30.208-59.392 37.376v-148.992z" />
<glyph unicode="&#xb6;" glyph-name="paragraph" horiz-adv-x="297" d="M144.384 40.704h-31.744v209.408h-7.68c-26.624 0-54.784 10.24-70.656 26.112-11.264 11.264-23.040 30.72-23.040 61.44 0 32.768 12.8 55.808 28.672 69.12 25.6 22.016 63.488 24.064 83.968 24.064h137.216v-29.696h-30.72v-360.448h-31.744v360.448h-54.272v-360.448z" />
<glyph unicode="&#xb7;" glyph-name="periodcentered" horiz-adv-x="103" d="M18.432 263.424c0 17.408 15.36 32.768 32.768 32.768s32.768-15.36 32.768-32.768-15.36-32.768-32.768-32.768-32.768 15.36-32.768 32.768z" />
<glyph unicode="&#xb8;" glyph-name="cedilla" d="M136.192 62.72l33.792-13.824-51.712-65.536-25.088 12.288z" />
<glyph unicode="&#xb9;" glyph-name="onesuperior" horiz-adv-x="179" d="M84.992 226.048v181.248h-39.936l12.288 23.552h54.272v-204.8h-26.624z" />
<glyph unicode="&#xba;" glyph-name="ordmasculine" horiz-adv-x="192" d="M95.744 430.848c19.968 0 40.96-7.68 55.296-22.016 11.264-11.776 19.456-29.184 19.456-49.664 0-24.576-10.752-39.936-18.944-48.64-11.264-11.776-29.184-22.016-55.808-22.016-24.064 0-41.472 8.192-53.76 20.48-12.8 12.288-20.992 30.208-20.992 50.688 0 14.336 4.096 32.256 18.944 48.128 10.752 11.264 28.672 23.040 55.808 23.040zM26.624 259.84h138.752v-21.504h-138.752v21.504zM95.744 408.32c-18.944 0-30.208-8.192-35.84-13.824-9.216-9.216-13.312-21.504-13.312-35.328 0-16.896 7.168-28.16 13.824-34.816 8.192-8.192 20.992-13.312 35.328-13.312 12.288 0 27.136 5.12 36.352 14.336 7.168 7.68 12.8 19.456 12.8 34.304 0 15.872-6.144 28.16-14.336 35.84-5.632 5.632-16.896 12.8-34.816 12.8z" />
<glyph unicode="&#xbb;" glyph-name="guillemotright" horiz-adv-x="220" d="M87.040 200.96l-61.44 74.752 23.552 18.432 76.8-93.184-76.8-96.256-23.552 18.944zM162.816 200.96l-61.44 74.752 23.552 18.432 76.8-93.184-76.8-96.256-23.552 18.944z" />
<glyph unicode="&#xbc;" glyph-name="onequarter" horiz-adv-x="389" d="M84.992 226.048v181.248h-39.936l12.288 23.552h54.272v-204.8h-26.624zM95.744 94.464l198.656 343.040 19.456-11.264-198.656-343.552zM347.648 305.408v-153.6h25.088v-23.552h-25.088v-38.912h-25.6v38.912h-104.96zM264.192 151.808h57.856v79.36z" />
<glyph unicode="&#xbd;" glyph-name="onehalf" horiz-adv-x="389" d="M84.992 226.048v181.248h-39.936l12.288 23.552h54.272v-204.8h-26.624zM75.264 94.464l198.656 343.040 19.456-11.264-198.656-343.552zM361.984 89.344h-135.68l74.752 86.528c11.264 13.312 16.384 18.944 23.552 29.696 4.608 6.656 11.264 16.896 11.264 31.232 0 19.968-14.336 36.864-38.912 36.864-12.288 0-25.6-4.608-33.28-17.408-4.096-7.168-6.144-16.384-6.144-24.576h-25.6c1.024 18.944 6.144 33.28 15.36 44.544 15.872 18.432 36.352 20.992 49.152 20.992 38.4 0 66.048-24.576 66.048-60.928 0-13.824-4.608-26.624-16.384-43.52-9.216-13.312-20.48-25.6-28.16-34.304l-39.424-45.568h83.456v-23.552z" />
<glyph unicode="&#xbe;" glyph-name="threequarters" horiz-adv-x="389" d="M19.456 281.856h25.6c1.024-10.752 5.632-18.944 10.24-24.064 8.192-8.704 18.432-11.776 29.696-11.776 6.144 0 17.408 1.024 26.112 10.24 6.144 6.144 10.752 16.384 10.752 28.672 0 13.824-5.632 23.552-12.8 29.184-9.216 7.168-21.504 7.68-28.672 7.68h-2.048v23.552h2.048c6.656 0 19.456 0.512 28.672 9.216 5.12 4.608 9.728 12.288 9.728 24.064 0 12.288-5.12 19.968-9.728 24.064-7.68 6.656-16.896 7.68-23.040 7.68-11.776 0-18.944-3.584-23.040-7.68-6.656-5.632-10.24-15.872-10.752-25.088h-25.6c0.512 16.384 7.68 31.232 16.384 40.448 7.168 7.68 20.992 15.872 44.032 15.872 22.016 0 35.84-8.192 43.52-16.384 6.656-7.168 14.848-19.456 14.848-38.4 0-10.24-2.048-19.456-6.144-26.624-5.632-10.752-13.824-15.872-20.48-18.944 8.704-4.096 16.896-10.24 22.016-18.432 6.656-10.24 7.68-22.528 7.68-31.232 0-16.384-5.12-30.72-16.896-43.008-13.824-14.336-30.208-18.432-47.616-18.432-14.336 0-34.304 3.072-48.64 18.432-8.704 9.216-15.36 23.552-15.872 40.96zM105.984 94.464l198.656 343.040 19.456-11.264-198.656-343.552zM347.648 305.408v-153.6h25.088v-23.552h-25.088v-38.912h-25.6v38.912h-104.96zM264.192 151.808h57.856v79.36z" />
<glyph unicode="&#xbf;" glyph-name="questiondown" horiz-adv-x="223" d="M75.264 164.608h-36.864c0 24.064 8.192 44.544 20.992 57.856 8.192 8.704 24.576 20.48 52.736 20.48 26.112 0 43.008-10.24 53.248-20.48 8.192-8.192 20.48-25.088 20.48-52.736 0-36.352-20.48-53.248-43.008-63.488-17.92-8.192-32.256-10.24-43.008-14.336-30.208-10.752-32.768-31.744-32.768-45.056 0-10.24 1.536-25.088 13.312-35.84 5.632-5.12 15.36-10.752 31.232-10.752 11.776 0 24.064 3.072 32.256 10.752 9.216 8.704 13.312 23.040 13.312 34.304 0 6.656-1.024 14.848-3.072 21.504h37.888c1.536-7.168 2.048-14.336 2.048-22.528 0-16.384-3.072-37.888-19.456-55.296-12.288-13.312-32.256-23.552-62.464-23.552-22.528 0-43.52 5.12-60.416 22.016-10.752 10.752-22.528 29.184-22.528 60.416 0 18.432 4.096 34.816 17.408 50.176 10.752 12.288 24.064 19.968 39.424 25.6 11.776 4.096 24.576 7.168 36.864 12.8 7.68 3.584 25.088 11.776 25.088 35.84 0 13.312-5.12 21.504-10.24 26.624-4.608 4.608-12.8 9.216-25.088 9.216-10.752 0-19.456-3.584-25.088-9.216-7.68-7.68-12.288-22.016-12.288-34.304zM137.216 292.608c0-13.824-11.776-25.6-25.6-25.6s-25.6 11.776-25.6 25.6 11.776 25.6 25.6 25.6 25.6-11.776 25.6-25.6z" />
<glyph unicode="&#xc0;" glyph-name="Agrave" horiz-adv-x="319" d="M272.384 89.344l-39.936 96.256h-145.408l-40.96-96.256h-41.984l157.184 357.888 153.088-357.888h-41.984zM101.888 221.44h115.712l-57.344 136.704zM164.352 457.984l-78.336 59.904 35.84 23.040 64.512-66.56z" />
<glyph unicode="&#xc1;" glyph-name="Aacute" horiz-adv-x="319" d="M272.384 89.344l-39.936 96.256h-145.408l-40.96-96.256h-41.984l157.184 357.888 153.088-357.888h-41.984zM101.888 221.44h115.712l-57.344 136.704zM201.216 540.928l35.84-23.040-78.336-59.904-22.016 16.384z" />
<glyph unicode="&#xc2;" glyph-name="Acircumflex" horiz-adv-x="319" d="M272.384 89.344l-39.936 96.256h-145.408l-40.96-96.256h-41.984l157.184 357.888 153.088-357.888h-41.984zM101.888 221.44h115.712l-57.344 136.704zM160.768 497.408l-45.056-38.912-26.624 20.992 71.68 60.928 71.68-60.928-26.624-20.992z" />
<glyph unicode="&#xc3;" glyph-name="Atilde" horiz-adv-x="319" d="M272.384 89.344l-39.936 96.256h-145.408l-40.96-96.256h-41.984l157.184 357.888 153.088-357.888h-41.984zM101.888 221.44h115.712l-57.344 136.704zM216.576 520.448l22.016-17.92c-3.072-8.192-7.68-15.36-13.312-20.992-12.288-12.8-26.112-15.872-35.84-15.872-12.288 0-20.992 4.608-34.304 11.264-12.8 6.144-20.992 10.24-28.672 10.24-5.632 0-10.752-2.048-15.36-6.656-3.584-4.096-7.168-9.728-8.704-15.872l-22.528 18.432c3.584 9.728 8.704 16.896 15.36 23.040 8.192 8.192 17.92 13.824 32.256 13.824 13.824 0 25.6-6.144 34.816-10.752 9.728-5.12 19.968-10.752 28.672-10.752 5.632 0 11.264 2.048 16.384 7.168 3.584 3.584 7.168 9.216 9.216 14.848z" />
<glyph unicode="&#xc4;" glyph-name="Adieresis" horiz-adv-x="319" d="M272.384 89.344l-39.936 96.256h-145.408l-40.96-96.256h-41.984l157.184 357.888 153.088-357.888h-41.984zM101.888 221.44h115.712l-57.344 136.704zM86.016 490.752c0 14.336 11.776 26.112 26.112 26.112s26.112-11.776 26.112-26.112-11.776-26.112-26.112-26.112-26.112 11.776-26.112 26.112zM183.296 490.752c0 14.336 11.776 26.112 26.112 26.112s26.112-11.776 26.112-26.112-11.776-26.112-26.112-26.112-26.112 11.776-26.112 26.112z" />
<glyph unicode="&#xc5;" glyph-name="Aring" horiz-adv-x="319" d="M272.384 89.344l-39.936 96.256h-145.408l-40.96-96.256h-41.984l157.184 357.888 153.088-357.888h-41.984zM101.888 221.44h115.712l-57.344 136.704zM116.224 508.16c0 24.576 20.48 45.056 45.056 45.056s45.056-20.48 45.056-45.056-20.48-45.056-45.056-45.056-45.056 20.48-45.056 45.056zM139.776 508.672c0-11.264 10.24-21.504 21.504-21.504s21.504 10.24 21.504 21.504-10.24 21.504-21.504 21.504-21.504-10.24-21.504-21.504z" />
<glyph unicode="&#xc6;" glyph-name="AE" horiz-adv-x="461" d="M275.456 89.344l-40.448 95.744h-145.408l-40.448-95.744h-41.984l152.064 341.504h150.016l14.848-35.84h-137.728l42.496-101.376h135.168l14.848-35.84h-134.144l55.296-132.608h138.752l14.848-35.84h-178.176zM105.984 220.928h114.176l-56.32 133.632z" />
<glyph unicode="&#xc7;" glyph-name="Ccedilla" horiz-adv-x="331" d="M305.152 402.688v-47.104c-10.752 10.752-27.136 23.552-44.544 31.744-17.92 8.192-38.912 13.312-58.88 13.312-78.848 0-137.216-63.488-137.216-142.336 0-92.672 75.264-139.264 137.728-139.264 23.040 0 45.568 6.656 63.488 15.872 19.456 9.728 33.28 22.528 39.424 28.672v-47.104c-37.888-27.136-77.312-33.28-102.912-33.28-101.376 0-176.64 76.8-176.64 175.616 0 101.888 76.288 177.664 178.688 177.664 20.48 0 59.904-2.56 100.864-33.792zM186.368 62.72l35.84-15.36-53.248-65.536-25.6 13.312z" />
<glyph unicode="&#xc8;" glyph-name="Egrave" horiz-adv-x="247" d="M221.184 430.848v-35.84h-139.264v-101.376h135.168v-35.84h-135.168v-132.608h139.264v-35.84h-177.152v341.504h177.152zM138.752 457.984l-78.336 59.904 35.84 23.040 64.512-66.56z" />
<glyph unicode="&#xc9;" glyph-name="Eacute" horiz-adv-x="247" d="M221.184 430.848v-35.84h-139.264v-101.376h135.168v-35.84h-135.168v-132.608h139.264v-35.84h-177.152v341.504h177.152zM169.984 540.928l35.84-23.040-78.336-59.904-22.016 16.384z" />
<glyph unicode="&#xca;" glyph-name="Ecircumflex" horiz-adv-x="247" d="M221.184 430.848v-35.84h-139.264v-101.376h135.168v-35.84h-135.168v-132.608h139.264v-35.84h-177.152v341.504h177.152zM133.12 497.408l-45.056-38.912-26.624 20.992 71.68 60.928 71.68-60.928-26.624-20.992z" />
<glyph unicode="&#xcb;" glyph-name="Edieresis" horiz-adv-x="247" d="M221.184 430.848v-35.84h-139.264v-101.376h135.168v-35.84h-135.168v-132.608h139.264v-35.84h-177.152v341.504h177.152zM58.368 490.752c0 14.336 11.776 26.112 26.112 26.112s26.112-11.776 26.112-26.112-11.776-26.112-26.112-26.112-26.112 11.776-26.112 26.112zM155.648 490.752c0 14.336 11.776 26.112 26.112 26.112s26.112-11.776 26.112-26.112-11.776-26.112-26.112-26.112-26.112 11.776-26.112 26.112z" />
<glyph unicode="&#xcc;" glyph-name="Igrave" horiz-adv-x="126" d="M44.032 430.848h37.888v-341.504h-37.888v341.504zM64 457.984l-78.336 59.904 35.84 23.040 64.512-66.56z" />
<glyph unicode="&#xcd;" glyph-name="Iacute" horiz-adv-x="126" d="M44.032 430.848h37.888v-341.504h-37.888v341.504zM109.056 540.928l35.84-23.040-78.336-59.904-22.016 16.384z" />
<glyph unicode="&#xce;" glyph-name="Icircumflex" horiz-adv-x="126" d="M43.52 430.848h37.888v-341.504h-37.888v341.504zM62.976 497.408l-45.056-38.912-26.624 20.992 71.68 60.928 71.68-60.928-26.624-20.992z" />
<glyph unicode="&#xcf;" glyph-name="Idieresis" horiz-adv-x="126" d="M44.032 430.848h37.888v-341.504h-37.888v341.504zM7.68 490.752c0 14.336 9.728 26.112 23.040 26.112s23.040-12.288 23.040-26.112-9.728-26.112-23.040-26.112-23.040 11.776-23.040 26.112zM72.192 490.752c0 13.824 9.728 26.112 23.040 26.112s23.040-11.776 23.040-26.112-9.728-26.112-23.040-26.112-23.040 12.288-23.040 26.112z" />
<glyph unicode="&#xd0;" glyph-name="Eth" horiz-adv-x="324" d="M44.032 89.344v172.032h-44.032v32.768h44.032v136.704h69.632c34.304 0 82.944-3.584 125.952-39.936 31.232-26.112 58.368-69.632 58.368-131.072 0-71.68-35.328-110.080-59.904-131.072-31.232-26.624-64-39.424-124.928-39.424h-69.12zM81.92 395.008v-100.864h69.632v-32.768h-69.632v-136.192h33.28c27.136 0 64.512 3.072 97.792 30.72 25.6 21.504 46.080 55.296 46.080 103.936 0 81.92-57.344 135.168-143.872 135.168h-33.28z" />
<glyph unicode="&#xd1;" glyph-name="Ntilde" horiz-adv-x="392" d="M81.92 89.344h-37.888v355.84l266.24-279.040v264.704h37.888v-356.864l-266.24 279.040v-263.68zM253.44 520.448l22.016-17.92c-3.072-8.192-7.68-15.36-13.312-20.992-12.288-12.8-26.112-15.872-35.84-15.872-12.288 0-20.992 4.608-34.304 11.264-12.8 6.144-20.992 10.24-28.672 10.24-5.632 0-10.752-2.048-15.36-6.656-3.584-4.096-7.168-9.728-8.704-15.872l-22.528 18.432c3.584 9.728 8.704 16.896 15.36 23.040 8.192 8.192 17.92 13.824 32.256 13.824 13.824 0 25.6-6.144 34.816-10.752 9.728-5.12 19.968-10.752 28.672-10.752 5.632 0 11.264 2.048 16.384 7.168 3.584 3.584 7.168 9.216 9.216 14.848z" />
<glyph unicode="&#xd2;" glyph-name="Ograve" horiz-adv-x="407" d="M203.264 83.2c-98.816 0-177.664 75.264-177.664 176.64 0 101.888 79.36 176.64 177.664 176.64s177.664-74.752 177.664-176.64c0-101.376-78.848-176.64-177.664-176.64zM203.264 400.64c-76.8 0-138.752-62.464-138.752-140.8s61.952-140.8 138.752-140.8 138.752 62.464 138.752 140.8-61.952 140.8-138.752 140.8zM210.432 457.984l-78.336 59.904 35.84 23.040 64.512-66.56z" />
<glyph unicode="&#xd3;" glyph-name="Oacute" horiz-adv-x="407" d="M203.264 83.2c-98.816 0-177.664 75.264-177.664 176.64 0 101.888 79.36 176.64 177.664 176.64s177.664-74.752 177.664-176.64c0-101.376-78.848-176.64-177.664-176.64zM203.264 400.64c-76.8 0-138.752-62.464-138.752-140.8s61.952-140.8 138.752-140.8 138.752 62.464 138.752 140.8-61.952 140.8-138.752 140.8zM236.544 540.928l35.84-23.040-78.336-59.904-22.016 16.384z" />
<glyph unicode="&#xd4;" glyph-name="Ocircumflex" horiz-adv-x="407" d="M203.264 83.2c-98.816 0-177.664 75.264-177.664 176.64 0 101.888 79.36 176.64 177.664 176.64s177.664-74.752 177.664-176.64c0-101.376-78.848-176.64-177.664-176.64zM203.264 400.64c-76.8 0-138.752-62.464-138.752-140.8s61.952-140.8 138.752-140.8 138.752 62.464 138.752 140.8-61.952 140.8-138.752 140.8zM203.264 497.408l-45.056-38.912-26.624 20.992 71.68 60.928 71.68-60.928-26.624-20.992z" />
<glyph unicode="&#xd5;" glyph-name="Otilde" horiz-adv-x="407" d="M203.264 83.2c-98.816 0-177.664 75.264-177.664 176.64 0 101.888 79.36 176.64 177.664 176.64s177.664-74.752 177.664-176.64c0-101.376-78.848-176.64-177.664-176.64zM203.264 400.64c-76.8 0-138.752-62.464-138.752-140.8s61.952-140.8 138.752-140.8 138.752 62.464 138.752 140.8-61.952 140.8-138.752 140.8zM260.608 520.448l22.016-17.92c-3.072-8.192-7.68-15.36-13.312-20.992-12.288-12.8-26.112-15.872-35.84-15.872-12.288 0-20.992 4.608-34.304 11.264-12.8 6.144-20.992 10.24-28.672 10.24-5.632 0-10.752-2.048-15.36-6.656-3.584-4.096-7.168-9.728-8.704-15.872l-22.528 18.432c3.584 9.728 8.704 16.896 15.36 23.040 8.192 8.192 17.92 13.824 32.256 13.824 13.824 0 25.6-6.144 34.816-10.752 9.728-5.12 19.968-10.752 28.672-10.752 5.632 0 11.264 2.048 16.384 7.168 3.584 3.584 7.168 9.216 9.216 14.848z" />
<glyph unicode="&#xd6;" glyph-name="Odieresis" horiz-adv-x="407" d="M203.264 83.2c-98.816 0-177.664 75.264-177.664 176.64 0 101.888 79.36 176.64 177.664 176.64s177.664-74.752 177.664-176.64c0-101.376-78.848-176.64-177.664-176.64zM203.264 400.64c-76.8 0-138.752-62.464-138.752-140.8s61.952-140.8 138.752-140.8 138.752 62.464 138.752 140.8-61.952 140.8-138.752 140.8zM128.512 490.752c0 14.336 11.776 26.112 26.112 26.112s26.112-11.776 26.112-26.112-11.776-26.112-26.112-26.112-26.112 11.776-26.112 26.112zM225.792 490.752c0 14.336 11.776 26.112 26.112 26.112s26.112-11.776 26.112-26.112-11.776-26.112-26.112-26.112-26.112 11.776-26.112 26.112z" />
<glyph unicode="&#xd7;" glyph-name="multiply" d="M30.72 186.624l73.216 73.216-76.288 76.288 24.064 24.064 76.288-76.288 76.288 76.288 24.064-24.064-76.288-76.288 73.216-73.216-24.064-24.064-73.216 73.216-73.216-73.216z" />
<glyph unicode="&#xd8;" glyph-name="Oslash" horiz-adv-x="407" d="M380.928 414.464l-40.448-40.96c13.312-15.872 40.448-52.224 40.448-113.664 0-101.376-79.36-176.64-177.664-176.64-56.32 0-92.672 22.016-114.176 39.936l-40.96-40.448-25.6 25.6 40.96 40.448c-29.696 37.888-37.888 78.848-37.888 111.104 0 101.888 79.872 176.64 177.664 176.64 30.72 0 72.192-7.168 111.616-37.376l40.448 40.96zM93.184 174.336l192 199.168c-11.264 8.704-39.424 27.136-81.92 27.136-76.8 0-138.752-62.464-138.752-140.8 0-43.52 17.92-71.68 28.672-85.504zM311.296 348.416l-193.024-200.192c31.744-24.576 65.536-29.184 84.992-29.184 76.288 0 138.752 62.464 138.752 140.8 0 25.6-6.656 58.88-30.72 88.576z" />
<glyph unicode="&#xd9;" glyph-name="Ugrave" horiz-adv-x="331" d="M81.92 430.848v-209.408c0-28.672 0-59.904 27.136-82.944 13.824-11.776 37.376-19.456 56.32-19.456s42.496 7.68 56.32 19.456c27.136 23.040 27.136 54.272 27.136 82.944v209.408h37.888v-219.648c0-28.672-3.072-56.32-21.504-81.92-20.48-28.16-56.32-46.080-99.84-46.080s-79.36 17.92-99.84 46.080c-18.432 25.6-21.504 53.248-21.504 81.92v219.648h37.888zM169.472 457.984l-78.336 59.904 35.84 23.040 64.512-66.56z" />
<glyph unicode="&#xda;" glyph-name="Uacute" horiz-adv-x="331" d="M81.92 430.848v-209.408c0-28.672 0-59.904 27.136-82.944 13.824-11.776 37.376-19.456 56.32-19.456s42.496 7.68 56.32 19.456c27.136 23.040 27.136 54.272 27.136 82.944v209.408h37.888v-219.648c0-28.672-3.072-56.32-21.504-81.92-20.48-28.16-56.32-46.080-99.84-46.080s-79.36 17.92-99.84 46.080c-18.432 25.6-21.504 53.248-21.504 81.92v219.648h37.888zM203.776 540.928l35.84-23.040-78.336-59.904-22.016 16.384z" />
<glyph unicode="&#xdb;" glyph-name="Ucircumflex" horiz-adv-x="331" d="M81.92 430.848v-209.408c0-28.672 0-59.904 27.136-82.944 13.824-11.776 37.376-19.456 56.32-19.456s42.496 7.68 56.32 19.456c27.136 23.040 27.136 54.272 27.136 82.944v209.408h37.888v-219.648c0-28.672-3.072-56.32-21.504-81.92-20.48-28.16-56.32-46.080-99.84-46.080s-79.36 17.92-99.84 46.080c-18.432 25.6-21.504 53.248-21.504 81.92v219.648h37.888zM165.376 497.408l-45.056-38.912-26.624 20.992 71.68 60.928 71.68-60.928-26.624-20.992z" />
<glyph unicode="&#xdc;" glyph-name="Udieresis" horiz-adv-x="331" d="M81.92 430.848v-209.408c0-28.672 0-59.904 27.136-82.944 13.824-11.776 37.376-19.456 56.32-19.456s42.496 7.68 56.32 19.456c27.136 23.040 27.136 54.272 27.136 82.944v209.408h37.888v-219.648c0-28.672-3.072-56.32-21.504-81.92-20.48-28.16-56.32-46.080-99.84-46.080s-79.36 17.92-99.84 46.080c-18.432 25.6-21.504 53.248-21.504 81.92v219.648h37.888zM90.624 490.752c0 14.336 11.776 26.112 26.112 26.112s26.112-11.776 26.112-26.112-11.776-26.112-26.112-26.112-26.112 11.776-26.112 26.112zM187.904 490.752c0 14.336 11.776 26.112 26.112 26.112s26.112-11.776 26.112-26.112-11.776-26.112-26.112-26.112-26.112 11.776-26.112 26.112z" />
<glyph unicode="&#xdd;" glyph-name="Yacute" horiz-adv-x="272" d="M116.224 89.344v146.944l-112.128 194.56h44.032l87.040-152.576 88.064 152.576h44.032l-113.152-194.56v-146.944h-37.888zM177.664 540.928l35.84-23.040-78.336-59.904-22.016 16.384z" />
<glyph unicode="&#xde;" glyph-name="Thorn" horiz-adv-x="234" d="M44.032 430.848h37.888v-51.2h24.064c34.304 0 62.976-4.096 86.016-24.064 25.088-21.504 31.232-51.712 31.232-73.216 0-48.128-30.208-95.744-108.032-95.744h-33.28v-97.28h-37.888v341.504zM81.92 343.808v-121.344h31.232c45.056 0 72.192 22.528 72.192 61.952 0 54.272-50.688 59.392-75.264 59.392h-28.16z" />
<glyph unicode="&#xdf;" glyph-name="germandbls" horiz-adv-x="273" d="M75.776 89.344h-36.864v178.688h-35.84v33.792h35.84v68.608c0 18.944 2.56 50.688 25.088 73.728 11.776 12.288 31.744 24.576 64.512 24.576 24.064 0 47.104-6.656 65.536-25.6 18.944-19.456 23.040-40.96 23.040-60.416 0-15.36-2.048-31.232-11.264-46.080s-20.992-22.016-28.16-25.6c17.92-6.144 33.792-15.872 45.056-28.16 13.312-13.824 28.16-37.376 28.16-73.728s-14.336-65.024-33.792-84.992c-16.896-17.408-49.152-39.424-95.744-40.96v35.84c28.672 2.048 53.248 14.848 68.096 30.208 12.288 12.8 22.528 32.256 22.528 57.856 0 27.136-11.776 47.616-24.576 59.904-19.968 18.944-47.104 24.576-66.048 25.088v32.768c14.848 0 33.792 5.632 45.056 17.408 11.264 12.288 12.8 28.16 12.8 37.888 0 24.576-8.192 37.376-15.36 44.032-6.144 5.632-17.408 11.776-35.328 11.776-21.504 0-33.792-9.216-40.96-19.456-11.264-15.872-11.776-39.424-11.776-60.416v-266.752z" />
<glyph unicode="&#xe0;" glyph-name="agrave" horiz-adv-x="270" d="M197.632 271.616v30.208h36.864v-212.48h-36.864v29.696c-12.288-15.872-35.328-35.84-72.704-35.84-53.76 0-103.424 37.888-103.424 112.64 0 73.216 49.152 111.104 103.424 111.104 40.96 0 62.976-22.528 72.704-35.328zM129.024 274.176c-36.352 0-69.632-26.624-69.632-78.336 0-45.568 25.6-79.872 69.632-79.872 45.056 0 70.656 37.376 70.656 79.36 0 54.784-37.888 78.848-70.656 78.848zM127.488 343.808l-69.12 69.12 37.888 17.408 53.76-74.24z" />
<glyph unicode="&#xe1;" glyph-name="aacute" horiz-adv-x="270" d="M197.632 271.616v30.208h36.864v-212.48h-36.864v29.696c-12.288-15.872-35.328-35.84-72.704-35.84-53.76 0-103.424 37.888-103.424 112.64 0 73.216 49.152 111.104 103.424 111.104 40.96 0 62.976-22.528 72.704-35.328zM129.024 274.176c-36.352 0-69.632-26.624-69.632-78.336 0-45.568 25.6-79.872 69.632-79.872 45.056 0 70.656 37.376 70.656 79.36 0 54.784-37.888 78.848-70.656 78.848zM159.744 430.336l37.888-17.408-68.608-69.12-23.040 12.288z" />
<glyph unicode="&#xe2;" glyph-name="acircumflex" horiz-adv-x="270" d="M197.632 271.616v30.208h36.864v-212.48h-36.864v29.696c-12.288-15.872-35.328-35.84-72.704-35.84-53.76 0-103.424 37.888-103.424 112.64 0 73.216 49.152 111.104 103.424 111.104 40.96 0 62.976-22.528 72.704-35.328zM129.024 274.176c-36.352 0-69.632-26.624-69.632-78.336 0-45.568 25.6-79.872 69.632-79.872 45.056 0 70.656 37.376 70.656 79.36 0 54.784-37.888 78.848-70.656 78.848zM131.072 385.28l-47.104-41.472-23.552 18.432 70.656 61.952 70.656-61.952-23.552-18.432z" />
<glyph unicode="&#xe3;" glyph-name="atilde" horiz-adv-x="270" d="M197.632 271.616v30.208h36.864v-212.48h-36.864v29.696c-12.288-15.872-35.328-35.84-72.704-35.84-53.76 0-103.424 37.888-103.424 112.64 0 73.216 49.152 111.104 103.424 111.104 40.96 0 62.976-22.528 72.704-35.328zM129.024 274.176c-36.352 0-69.632-26.624-69.632-78.336 0-45.568 25.6-79.872 69.632-79.872 45.056 0 70.656 37.376 70.656 79.36 0 54.784-37.888 78.848-70.656 78.848zM83.968 343.808l-21.504 17.408c4.608 7.68 11.776 17.408 17.408 23.040 9.728 9.216 18.432 12.288 29.184 12.288 13.824 0 24.576-4.608 35.84-10.24 11.776-6.144 18.944-10.24 28.672-10.24 6.144 0 10.24 1.024 14.848 6.144 3.584 4.096 8.704 11.776 10.752 15.872l20.992-17.408c-2.56-6.656-6.656-13.312-13.312-19.968-11.776-12.288-24.064-15.36-33.792-15.36-12.288 0-25.6 6.144-35.328 10.752-12.288 5.632-20.48 9.728-28.16 9.728-6.144 0-10.24-2.56-14.848-7.168s-8.192-10.24-10.752-14.848z" />
<glyph unicode="&#xe4;" glyph-name="adieresis" horiz-adv-x="270" d="M197.632 271.616v30.208h36.864v-212.48h-36.864v29.696c-12.288-15.872-35.328-35.84-72.704-35.84-53.76 0-103.424 37.888-103.424 112.64 0 73.216 49.152 111.104 103.424 111.104 40.96 0 62.976-22.528 72.704-35.328zM129.024 274.176c-36.352 0-69.632-26.624-69.632-78.336 0-45.568 25.6-79.872 69.632-79.872 45.056 0 70.656 37.376 70.656 79.36 0 54.784-37.888 78.848-70.656 78.848zM66.56 370.944c0 13.824 11.776 25.6 25.6 25.6s25.6-11.776 25.6-25.6-11.776-25.6-25.6-25.6-25.6 11.776-25.6 25.6zM155.648 370.944c0 13.824 11.776 25.6 25.6 25.6s25.6-11.776 25.6-25.6-11.776-25.6-25.6-25.6-25.6 11.776-25.6 25.6z" />
<glyph unicode="&#xe5;" glyph-name="aring" horiz-adv-x="270" d="M197.632 271.616v30.208h36.864v-212.48h-36.864v29.696c-12.288-15.872-35.328-35.84-72.704-35.84-53.76 0-103.424 37.888-103.424 112.64 0 73.216 49.152 111.104 103.424 111.104 40.96 0 62.976-22.528 72.704-35.328zM129.024 274.176c-36.352 0-69.632-26.624-69.632-78.336 0-45.568 25.6-79.872 69.632-79.872 45.056 0 70.656 37.376 70.656 79.36 0 54.784-37.888 78.848-70.656 78.848zM93.184 387.84c0 24.064 19.968 44.032 44.032 44.032s44.032-19.968 44.032-44.032-19.968-44.032-44.032-44.032-44.032 19.968-44.032 44.032zM115.712 387.84c0-11.264 10.24-21.504 21.504-21.504s21.504 10.24 21.504 21.504-10.24 21.504-21.504 21.504-21.504-10.24-21.504-21.504z" />
<glyph unicode="&#xe6;" glyph-name="ae" horiz-adv-x="397" d="M341.504 161.024l30.72-18.432c-14.336-27.136-42.496-59.392-95.744-59.392-17.92 0-56.32 2.56-83.456 42.496-21.504-37.888-57.856-42.496-79.872-42.496-49.664 0-91.648 22.528-91.648 69.12 0 45.568 39.424 70.144 88.576 70.144 25.6 0 44.544-6.144 60.928-17.92 0.512 12.288-1.536 31.744-9.728 45.056-10.752 18.432-28.672 24.576-50.688 24.576-24.576 0-52.736-8.704-65.536-13.312v34.816c28.16 9.216 48.64 11.264 66.048 11.264 23.552 0 61.952-4.096 80.384-43.008 17.408 28.16 47.616 43.008 81.92 43.008 61.952 0 101.376-45.568 101.376-115.2v-3.584h-165.888c1.536-41.984 30.72-72.192 67.072-72.192 29.696 0 53.248 20.48 65.536 45.056zM211.456 218.88h125.44c-4.608 34.816-31.232 55.296-62.976 55.296-30.72 0-56.832-19.968-62.464-55.296zM113.152 189.696c-36.352 0-54.784-16.896-54.784-37.376 0-15.36 11.264-36.352 53.76-36.352s56.832 21.504 56.832 37.888c0 14.848-13.824 35.84-55.808 35.84z" />
<glyph unicode="&#xe7;" glyph-name="ccedilla" horiz-adv-x="225" d="M201.216 286.464v-44.032c-19.456 24.576-47.616 31.744-66.56 31.744-39.424 0-75.264-27.648-75.264-79.36s36.864-78.848 74.752-78.848c22.016 0 49.152 9.728 68.608 33.28v-44.032c-23.040-16.896-47.616-22.016-67.584-22.016-66.048 0-113.664 47.104-113.664 111.104 0 65.024 48.128 112.64 113.664 112.64 33.792 0 55.808-13.312 66.048-20.48zM125.952 62.72l33.792-13.824-51.712-65.536-25.088 12.288z" />
<glyph unicode="&#xe8;" glyph-name="egrave" horiz-adv-x="247" d="M192.512 160.512l30.72-16.896c-6.144-11.776-15.36-24.576-26.112-34.304-19.456-17.408-43.52-26.112-70.656-26.112-51.2 0-104.96 32.256-104.96 111.104 0 63.488 38.912 112.64 102.912 112.64 41.472 0 67.584-20.48 80.384-38.912 13.312-18.944 20.992-51.712 19.968-79.872h-165.376c0.512-44.032 30.72-72.192 67.584-72.192 17.408 0 31.232 5.12 43.52 15.36 9.728 8.192 17.408 18.944 22.016 29.184zM61.952 218.88h124.928c-6.144 33.28-31.232 55.296-62.464 55.296s-56.832-23.552-62.464-55.296zM127.488 343.808l-69.12 69.12 37.888 17.408 53.76-74.24z" />
<glyph unicode="&#xe9;" glyph-name="eacute" horiz-adv-x="247" d="M192.512 160.512l30.72-16.896c-6.144-11.776-15.36-24.576-26.112-34.304-19.456-17.408-43.52-26.112-70.656-26.112-51.2 0-104.96 32.256-104.96 111.104 0 63.488 38.912 112.64 102.912 112.64 41.472 0 67.584-20.48 80.384-38.912 13.312-18.944 20.992-51.712 19.968-79.872h-165.376c0.512-44.032 30.72-72.192 67.584-72.192 17.408 0 31.232 5.12 43.52 15.36 9.728 8.192 17.408 18.944 22.016 29.184zM61.952 218.88h124.928c-6.144 33.28-31.232 55.296-62.464 55.296s-56.832-23.552-62.464-55.296zM149.504 430.336l37.888-17.408-68.608-69.12-23.040 12.288z" />
<glyph unicode="&#xea;" glyph-name="ecircumflex" horiz-adv-x="247" d="M192.512 160.512l30.72-16.896c-6.144-11.776-15.36-24.576-26.112-34.304-19.456-17.408-43.52-26.112-70.656-26.112-51.2 0-104.96 32.256-104.96 111.104 0 63.488 38.912 112.64 102.912 112.64 41.472 0 67.584-20.48 80.384-38.912 13.312-18.944 20.992-51.712 19.968-79.872h-165.376c0.512-44.032 30.72-72.192 67.584-72.192 17.408 0 31.232 5.12 43.52 15.36 9.728 8.192 17.408 18.944 22.016 29.184zM61.952 218.88h124.928c-6.144 33.28-31.232 55.296-62.464 55.296s-56.832-23.552-62.464-55.296zM123.904 385.28l-47.104-41.472-23.552 18.432 70.656 61.952 70.656-61.952-23.552-18.432z" />
<glyph unicode="&#xeb;" glyph-name="edieresis" horiz-adv-x="247" d="M192.512 160.512l30.72-16.896c-6.144-11.776-15.36-24.576-26.112-34.304-19.456-17.408-43.52-26.112-70.656-26.112-51.2 0-104.96 32.256-104.96 111.104 0 63.488 38.912 112.64 102.912 112.64 41.472 0 67.584-20.48 80.384-38.912 13.312-18.944 20.992-51.712 19.968-79.872h-165.376c0.512-44.032 30.72-72.192 67.584-72.192 17.408 0 31.232 5.12 43.52 15.36 9.728 8.192 17.408 18.944 22.016 29.184zM61.952 218.88h124.928c-6.144 33.28-31.232 55.296-62.464 55.296s-56.832-23.552-62.464-55.296zM53.76 370.944c0 13.824 11.776 25.6 25.6 25.6s25.6-11.776 25.6-25.6-11.776-25.6-25.6-25.6-25.6 11.776-25.6 25.6zM142.848 370.944c0 13.824 11.776 25.6 25.6 25.6s25.6-11.776 25.6-25.6-11.776-25.6-25.6-25.6-25.6 11.776-25.6 25.6z" />
<glyph unicode="&#xec;" glyph-name="igrave" horiz-adv-x="107" d="M34.816 301.824h36.864v-212.48h-36.864v212.48zM55.808 341.76l-62.976 75.264 39.424 13.824 46.592-78.336z" />
<glyph unicode="&#xed;" glyph-name="iacute" horiz-adv-x="107" d="M34.816 301.824h36.864v-212.48h-36.864v212.48zM74.24 430.848l39.424-13.824-62.976-75.264-24.064 10.752z" />
<glyph unicode="&#xee;" glyph-name="icircumflex" horiz-adv-x="107" d="M34.816 301.824h36.864v-212.48h-36.864v212.48zM53.248 382.208l-38.4-34.304-22.016 17.92 60.416 54.272 60.416-54.272-22.016-17.92z" />
<glyph unicode="&#xef;" glyph-name="idieresis" horiz-adv-x="107" d="M34.816 301.824h36.864v-212.48h-36.864v212.48zM-16.896 370.944c0 13.824 11.776 25.6 25.6 25.6s25.6-11.776 25.6-25.6-11.776-25.6-25.6-25.6-25.6 11.776-25.6 25.6zM72.192 370.944c0 13.824 11.776 25.6 25.6 25.6s25.6-11.776 25.6-25.6-11.776-25.6-25.6-25.6-25.6 11.776-25.6 25.6z" />
<glyph unicode="&#xf0;" glyph-name="eth" horiz-adv-x="269" d="M42.496 402.688l8.704 31.232c52.736-4.608 89.6-24.576 108.032-36.352l66.048 21.504 9.216-27.648-48.64-15.872c16.896-14.848 28.16-30.208 37.888-49.664 11.264-22.528 23.040-53.76 23.040-107.52 0-25.088-3.072-54.784-17.92-80.896-16.384-28.672-46.592-54.272-94.72-54.272-40.96 0-66.56 17.92-81.408 32.768-17.408 17.92-31.232 44.032-31.232 81.92 0 41.472 16.896 69.12 33.28 85.504 13.312 13.312 37.888 29.696 76.288 29.696 39.424 0 59.904-16.896 69.12-25.088-4.096 15.36-10.24 27.648-18.944 40.448-10.24 14.848-20.992 25.6-32.768 34.816l-91.648-30.208-9.216 27.648 68.608 22.528c-16.384 7.68-40.448 15.872-73.728 19.456zM208.896 200.96c0 26.624-10.752 48.64-24.576 61.44-11.264 10.752-27.136 17.92-48.64 17.92-24.064 0-40.96-10.24-51.712-20.48-14.848-13.824-24.576-34.304-24.576-62.976 0-18.944 4.608-41.472 23.552-59.904 14.848-14.336 34.304-20.992 51.2-20.992 24.064 0 40.448 10.752 49.664 19.968 16.896 16.384 25.088 40.96 25.088 65.024z" />
<glyph unicode="&#xf1;" glyph-name="ntilde" horiz-adv-x="241" d="M34.816 89.344v212.48h36.864v-24.576c6.656 8.704 25.6 29.696 60.928 29.696 25.088 0 48.128-10.24 60.928-29.184 10.752-15.872 12.288-33.28 12.288-56.832v-131.584h-36.864v130.56c0 12.8-1.024 27.648-9.728 38.912-7.168 9.216-18.432 15.36-34.816 15.36-12.8 0-26.624-3.584-37.376-16.384-14.336-16.896-15.36-41.984-15.36-57.344v-111.104h-36.864zM60.416 343.808l-21.504 17.408c4.608 7.68 11.776 17.408 17.408 23.040 9.728 9.216 18.432 12.288 29.184 12.288 13.824 0 24.576-4.608 35.84-10.24 11.776-6.144 18.944-10.24 28.672-10.24 6.144 0 10.24 1.024 14.848 6.144 3.584 4.096 8.704 11.776 10.752 15.872l20.992-17.408c-2.56-6.656-6.656-13.312-13.312-19.968-11.776-12.288-24.064-15.36-33.792-15.36-12.288 0-25.6 6.144-35.328 10.752-12.288 5.632-20.48 9.728-28.16 9.728-6.144 0-10.24-2.56-14.848-7.168s-8.192-10.24-10.752-14.848z" />
<glyph unicode="&#xf2;" glyph-name="ograve" horiz-adv-x="269" d="M134.144 83.2c-64.512 0-112.64 47.104-112.64 111.616s47.616 112.128 112.64 112.128 112.64-47.616 112.64-112.128-48.128-111.616-112.64-111.616zM134.144 274.176c-38.912 0-74.752-27.648-74.752-79.36 0-52.224 36.864-78.848 74.752-78.848 38.4 0 74.752 27.136 74.752 78.848 0 52.224-35.84 79.36-74.752 79.36zM133.632 343.808l-69.12 69.12 37.888 17.408 53.76-74.24z" />
<glyph unicode="&#xf3;" glyph-name="oacute" horiz-adv-x="269" d="M134.144 83.2c-64.512 0-112.64 47.104-112.64 111.616s47.616 112.128 112.64 112.128 112.64-47.616 112.64-112.128-48.128-111.616-112.64-111.616zM134.144 274.176c-38.912 0-74.752-27.648-74.752-79.36 0-52.224 36.864-78.848 74.752-78.848 38.4 0 74.752 27.136 74.752 78.848 0 52.224-35.84 79.36-74.752 79.36zM165.888 430.336l37.888-17.408-68.608-69.12-23.040 12.288z" />
<glyph unicode="&#xf4;" glyph-name="ocircumflex" horiz-adv-x="269" d="M134.144 83.2c-64.512 0-112.64 47.104-112.64 111.616s47.616 112.128 112.64 112.128 112.64-47.616 112.64-112.128-48.128-111.616-112.64-111.616zM134.144 274.176c-38.912 0-74.752-27.648-74.752-79.36 0-52.224 36.864-78.848 74.752-78.848 38.4 0 74.752 27.136 74.752 78.848 0 52.224-35.84 79.36-74.752 79.36zM134.144 385.28l-47.104-41.472-23.552 18.432 70.656 61.952 70.656-61.952-23.552-18.432z" />
<glyph unicode="&#xf5;" glyph-name="otilde" horiz-adv-x="269" d="M134.144 83.2c-64.512 0-112.64 47.104-112.64 111.616s47.616 112.128 112.64 112.128 112.64-47.616 112.64-112.128-48.128-111.616-112.64-111.616zM134.144 274.176c-38.912 0-74.752-27.648-74.752-79.36 0-52.224 36.864-78.848 74.752-78.848 38.4 0 74.752 27.136 74.752 78.848 0 52.224-35.84 79.36-74.752 79.36zM76.8 343.808l-21.504 17.408c4.608 7.68 11.776 17.408 17.408 23.040 9.728 9.216 18.432 12.288 29.184 12.288 13.824 0 24.576-4.608 35.84-10.24 11.776-6.144 18.944-10.24 28.672-10.24 6.144 0 10.24 1.024 14.848 6.144 3.584 4.096 8.704 11.776 10.752 15.872l20.992-17.408c-2.56-6.656-6.656-13.312-13.312-19.968-11.776-12.288-24.064-15.36-33.792-15.36-12.288 0-25.6 6.144-35.328 10.752-12.288 5.632-20.48 9.728-28.16 9.728-6.144 0-10.24-2.56-14.848-7.168s-8.192-10.24-10.752-14.848z" />
<glyph unicode="&#xf6;" glyph-name="odieresis" horiz-adv-x="269" d="M134.144 83.2c-64.512 0-112.64 47.104-112.64 111.616s47.616 112.128 112.64 112.128 112.64-47.616 112.64-112.128-48.128-111.616-112.64-111.616zM134.144 274.176c-38.912 0-74.752-27.648-74.752-79.36 0-52.224 36.864-78.848 74.752-78.848 38.4 0 74.752 27.136 74.752 78.848 0 52.224-35.84 79.36-74.752 79.36zM64 370.944c0 13.824 11.776 25.6 25.6 25.6s25.6-11.776 25.6-25.6-11.776-25.6-25.6-25.6-25.6 11.776-25.6 25.6zM153.088 370.944c0 13.824 11.776 25.6 25.6 25.6s25.6-11.776 25.6-25.6-11.776-25.6-25.6-25.6-25.6 11.776-25.6 25.6z" />
<glyph unicode="&#xf7;" glyph-name="divide" d="M102.912 353.024c0 13.824 11.264 25.088 25.088 25.088s25.088-11.264 25.088-25.088-11.264-25.088-25.088-25.088-25.088 11.264-25.088 25.088zM102.912 166.656c0 13.824 11.264 25.088 25.088 25.088s25.088-11.264 25.088-25.088-11.264-25.088-25.088-25.088-25.088 11.264-25.088 25.088zM16.896 242.944v33.792h222.208v-33.792h-222.208z" />
<glyph unicode="&#xf8;" glyph-name="oslash" horiz-adv-x="269" d="M254.464 294.144l-30.208-30.208c10.24-12.8 22.528-33.792 22.528-69.12 0-65.024-48.128-111.616-112.64-111.616-35.84 0-56.832 12.8-68.608 21.504l-31.232-30.72-23.552 23.040 31.232 30.72c-7.68 10.752-20.48 31.744-20.48 67.072 0 65.024 48.128 112.128 112.64 112.128 35.328 0 56.32-12.8 66.56-20.48l31.232 30.72zM69.12 152.832l105.984 109.568c-11.776 7.68-25.088 11.776-40.96 11.776-38.912 0-74.752-27.136-74.752-79.36 0-17.408 4.096-30.72 9.728-41.984zM197.632 238.848l-105.984-109.568c10.752-7.68 24.064-13.312 42.496-13.312 38.4 0 74.752 26.624 74.752 78.848 0 17.408-4.096 31.232-11.264 44.032z" />
<glyph unicode="&#xf9;" glyph-name="ugrave" horiz-adv-x="239" d="M71.68 301.824v-123.904c0-14.848 0-32.256 10.24-45.568 5.632-7.168 16.896-16.384 37.376-16.384s31.744 9.216 37.376 16.384c10.24 13.312 10.24 30.72 10.24 45.568v123.904h36.864v-128c0-26.112-2.56-45.568-19.456-64-18.944-19.968-44.032-26.624-65.024-26.624s-46.080 6.656-65.024 26.624c-16.896 18.432-19.456 37.888-19.456 64v128h36.864zM122.368 343.808l-69.12 69.12 37.888 17.408 53.76-74.24z" />
<glyph unicode="&#xfa;" glyph-name="uacute" horiz-adv-x="239" d="M71.68 301.824v-123.904c0-14.848 0-32.256 10.24-45.568 5.632-7.168 16.896-16.384 37.376-16.384s31.744 9.216 37.376 16.384c10.24 13.312 10.24 30.72 10.24 45.568v123.904h36.864v-128c0-26.112-2.56-45.568-19.456-64-18.944-19.968-44.032-26.624-65.024-26.624s-46.080 6.656-65.024 26.624c-16.896 18.432-19.456 37.888-19.456 64v128h36.864zM146.432 430.336l37.888-17.408-68.608-69.12-23.040 12.288z" />
<glyph unicode="&#xfb;" glyph-name="ucircumflex" horiz-adv-x="239" d="M71.68 301.824v-123.904c0-14.848 0-32.256 10.24-45.568 5.632-7.168 16.896-16.384 37.376-16.384s31.744 9.216 37.376 16.384c10.24 13.312 10.24 30.72 10.24 45.568v123.904h36.864v-128c0-26.112-2.56-45.568-19.456-64-18.944-19.968-44.032-26.624-65.024-26.624s-46.080 6.656-65.024 26.624c-16.896 18.432-19.456 37.888-19.456 64v128h36.864zM119.296 385.28l-47.104-41.472-23.552 18.432 70.656 61.952 70.656-61.952-23.552-18.432z" />
<glyph unicode="&#xfc;" glyph-name="udieresis" horiz-adv-x="239" d="M71.68 301.824v-123.904c0-14.848 0-32.256 10.24-45.568 5.632-7.168 16.896-16.384 37.376-16.384s31.744 9.216 37.376 16.384c10.24 13.312 10.24 30.72 10.24 45.568v123.904h36.864v-128c0-26.112-2.56-45.568-19.456-64-18.944-19.968-44.032-26.624-65.024-26.624s-46.080 6.656-65.024 26.624c-16.896 18.432-19.456 37.888-19.456 64v128h36.864zM49.152 370.944c0 13.824 11.776 25.6 25.6 25.6s25.6-11.776 25.6-25.6-11.776-25.6-25.6-25.6-25.6 11.776-25.6 25.6zM138.24 370.944c0 13.824 11.776 25.6 25.6 25.6s25.6-11.776 25.6-25.6-11.776-25.6-25.6-25.6-25.6 11.776-25.6 25.6z" />
<glyph unicode="&#xfd;" glyph-name="yacute" horiz-adv-x="236" d="M34.304-28.416l67.584 137.728-97.792 192.512h41.984l75.264-152.064 69.12 152.064h40.96l-156.16-330.24h-40.96zM149.504 430.336l37.888-17.408-68.608-69.12-23.040 12.288z" />
<glyph unicode="&#xfe;" glyph-name="thorn" horiz-adv-x="270" d="M71.68 119.040v-147.456h-36.864v491.008h36.864v-190.464c25.088 31.232 57.344 34.816 72.704 34.816 66.56 0 103.424-55.296 103.424-112.64 0-58.368-37.376-111.104-101.888-111.104-34.304 0-58.368 15.36-74.24 35.84zM140.8 115.968c43.008 0 69.12 35.84 69.12 78.336 0 52.224-35.328 79.872-69.632 79.872s-70.656-28.16-70.656-79.36c0-43.52 27.648-78.848 71.168-78.848z" />
<glyph unicode="&#xff;" glyph-name="ydieresis" horiz-adv-x="236" d="M34.304-28.416l67.584 137.728-97.792 192.512h41.984l75.264-152.064 69.12 152.064h40.96l-156.16-330.24h-40.96zM52.736 370.944c0 13.824 11.776 25.6 25.6 25.6s25.6-11.776 25.6-25.6-11.776-25.6-25.6-25.6-25.6 11.776-25.6 25.6zM141.824 370.944c0 13.824 11.776 25.6 25.6 25.6s25.6-11.776 25.6-25.6-11.776-25.6-25.6-25.6-25.6 11.776-25.6 25.6z" />
<glyph unicode="&#x100;" glyph-name="Amacron" horiz-adv-x="319" d="M272.384 89.344l-39.936 96.256h-145.408l-40.96-96.256h-41.984l157.184 357.888 153.088-357.888h-41.984zM101.888 221.44h115.712l-57.344 136.704zM79.36 464.64v32.768h163.84v-32.768h-163.84z" />
<glyph unicode="&#x101;" glyph-name="amacron" horiz-adv-x="270" d="M197.632 271.616v30.208h36.864v-212.48h-36.864v29.696c-12.288-15.872-35.328-35.84-72.704-35.84-53.76 0-103.424 37.888-103.424 112.64 0 73.216 49.152 111.104 103.424 111.104 40.96 0 62.976-22.528 72.704-35.328zM129.024 274.176c-36.352 0-69.632-26.624-69.632-78.336 0-45.568 25.6-79.872 69.632-79.872 45.056 0 70.656 37.376 70.656 79.36 0 54.784-37.888 78.848-70.656 78.848zM57.856 352v30.72h154.624v-30.72h-154.624z" />
<glyph unicode="&#x102;" glyph-name="Abreve" horiz-adv-x="319" d="M272.384 89.344l-39.936 96.256h-145.408l-40.96-96.256h-41.984l157.184 357.888 153.088-357.888h-41.984zM101.888 221.44h115.712l-57.344 136.704zM206.848 519.936h33.792c-2.56-13.312-8.192-25.088-15.872-34.304-10.24-11.776-29.696-27.136-63.488-27.136s-53.248 15.36-63.488 27.136c-7.68 9.216-13.312 20.992-15.872 34.304h33.792c2.048-6.144 5.632-12.8 12.8-18.432 9.216-7.168 21.504-10.24 32.768-10.24s23.552 3.072 32.768 10.24c7.168 5.632 10.752 12.288 12.8 18.432z" />
<glyph unicode="&#x103;" glyph-name="abreve" horiz-adv-x="270" d="M197.632 271.616v30.208h36.864v-212.48h-36.864v29.696c-12.288-15.872-35.328-35.84-72.704-35.84-53.76 0-103.424 37.888-103.424 112.64 0 73.216 49.152 111.104 103.424 111.104 40.96 0 62.976-22.528 72.704-35.328zM129.024 274.176c-36.352 0-69.632-26.624-69.632-78.336 0-45.568 25.6-79.872 69.632-79.872 45.056 0 70.656 37.376 70.656 79.36 0 54.784-37.888 78.848-70.656 78.848zM62.976 405.248h31.232c2.56-9.216 7.68-15.872 12.288-19.968 8.704-7.68 19.456-10.752 30.72-10.752s22.016 3.072 30.72 10.752c4.608 4.096 9.728 10.752 12.288 19.968h31.232c-3.584-19.456-12.8-31.232-14.848-34.304-9.216-11.776-26.624-27.136-59.392-27.136s-50.176 15.36-59.392 27.136c-2.048 3.072-11.264 14.848-14.848 34.304z" />
<glyph unicode="&#x104;" glyph-name="Aogonek" horiz-adv-x="319" d="M161.28 447.232l153.088-357.888h-10.24c-8.704-5.12-18.432-12.288-25.6-20.992-4.096-5.12-10.24-13.824-10.24-24.576 0-7.68 3.584-12.288 6.144-14.848 4.608-4.096 12.288-6.144 19.456-6.144 8.192 0 17.408 2.048 25.6 6.656l-4.096-30.208c-9.728-5.12-19.456-7.168-28.16-7.168-14.336 0-30.72 6.144-39.936 14.848-6.144 5.632-11.776 15.36-11.776 29.184 0 9.728 3.072 20.992 11.776 32.256 6.656 8.192 15.872 15.872 25.088 20.992l-39.936 96.256h-145.408l-40.96-96.256h-41.984zM101.888 221.44h115.712l-57.344 136.704z" />
<glyph unicode="&#x105;" glyph-name="aogonek" horiz-adv-x="270" d="M197.632 271.616v30.208h36.864v-212.48h-7.168c-7.68-4.608-16.896-12.288-24.064-19.968-4.608-5.12-11.776-14.336-11.776-26.112 0-6.656 2.56-11.776 6.144-14.848 6.144-5.632 17.92-5.632 20.48-5.632 4.608 0 15.36 1.024 24.576 6.656l-4.096-28.16c-11.264-6.656-24.064-7.168-28.672-7.168-12.288 0-28.16 4.608-37.888 14.336-5.12 5.12-11.264 14.848-11.264 28.672 0 23.040 17.408 40.96 36.864 52.224v29.696c-8.192-9.728-18.944-18.944-28.672-24.576-15.872-9.216-32.256-11.264-44.032-11.264-32.768 0-57.344 13.312-73.216 29.184-9.728 10.24-30.208 36.352-30.208 83.456 0 36.352 12.8 65.024 30.72 82.944 16.896 16.896 43.52 28.16 72.704 28.16 31.232 0 55.808-13.312 72.704-35.328zM129.024 274.176c-20.992 0-37.376-8.704-48.64-20.48-11.776-12.8-20.992-31.744-20.992-59.904 0-33.792 13.824-51.712 22.528-59.904 11.264-10.24 28.672-17.92 48.128-17.92 18.944 0 33.792 6.144 46.592 18.944 10.752 11.264 23.040 30.208 23.040 60.416 0 26.624-9.216 45.568-19.968 57.344-11.264 12.288-29.184 21.504-50.688 21.504z" />
<glyph unicode="&#x106;" glyph-name="Cacute" horiz-adv-x="331" d="M305.152 402.688v-47.104c-10.752 10.752-27.136 23.552-44.544 31.744-17.92 8.192-38.912 13.312-58.88 13.312-78.848 0-137.216-63.488-137.216-142.336 0-92.672 75.264-139.264 137.728-139.264 23.040 0 45.568 6.656 63.488 15.872 19.456 9.728 33.28 22.528 39.424 28.672v-47.104c-37.888-27.136-77.312-33.28-102.912-33.28-101.376 0-176.64 76.8-176.64 175.616 0 101.888 76.288 177.664 178.688 177.664 20.48 0 59.904-2.56 100.864-33.792zM231.424 540.928l35.84-23.040-78.336-59.904-22.016 16.384z" />
<glyph unicode="&#x107;" glyph-name="cacute" horiz-adv-x="225" d="M201.216 286.464v-44.032c-19.456 24.576-47.616 31.744-66.56 31.744-39.424 0-75.264-27.648-75.264-79.36s36.864-78.848 74.752-78.848c22.016 0 49.152 9.728 68.608 33.28v-44.032c-23.040-16.896-47.616-22.016-67.584-22.016-66.048 0-113.664 47.104-113.664 111.104 0 65.024 48.128 112.64 113.664 112.64 33.792 0 55.808-13.312 66.048-20.48zM149.504 430.336l37.888-17.408-68.608-69.12-23.040 12.288z" />
<glyph unicode="&#x108;" glyph-name="Ccircumflex" horiz-adv-x="331" d="M305.152 402.688v-47.104c-10.752 10.752-27.136 23.552-44.544 31.744-17.92 8.192-38.912 13.312-58.88 13.312-78.848 0-137.216-63.488-137.216-142.336 0-92.672 75.264-139.264 137.728-139.264 23.040 0 45.568 6.656 63.488 15.872 19.456 9.728 33.28 22.528 39.424 28.672v-47.104c-37.888-27.136-77.312-33.28-102.912-33.28-101.376 0-176.64 76.8-176.64 175.616 0 101.888 76.288 177.664 178.688 177.664 20.48 0 59.904-2.56 100.864-33.792zM204.8 497.408l-45.056-38.912-26.624 20.992 71.68 60.928 71.68-60.928-26.624-20.992z" />
<glyph unicode="&#x109;" glyph-name="ccircumflex" horiz-adv-x="225" d="M201.216 286.464v-44.032c-19.456 24.576-47.616 31.744-66.56 31.744-39.424 0-75.264-27.648-75.264-79.36s36.864-78.848 74.752-78.848c22.016 0 49.152 9.728 68.608 33.28v-44.032c-23.040-16.896-47.616-22.016-67.584-22.016-66.048 0-113.664 47.104-113.664 111.104 0 65.024 48.128 112.64 113.664 112.64 33.792 0 55.808-13.312 66.048-20.48zM133.12 385.28l-47.104-41.472-23.552 18.432 70.656 61.952 70.656-61.952-23.552-18.432z" />
<glyph unicode="&#x10a;" glyph-name="Cdotaccent" horiz-adv-x="331" d="M305.152 402.688v-47.104c-10.752 10.752-27.136 23.552-44.544 31.744-17.92 8.192-38.912 13.312-58.88 13.312-78.848 0-137.216-63.488-137.216-142.336 0-92.672 75.264-139.264 137.728-139.264 23.040 0 45.568 6.656 63.488 15.872 19.456 9.728 33.28 22.528 39.424 28.672v-47.104c-37.888-27.136-77.312-33.28-102.912-33.28-101.376 0-176.64 76.8-176.64 175.616 0 101.888 76.288 177.664 178.688 177.664 20.48 0 59.904-2.56 100.864-33.792zM173.056 490.752c0 16.384 11.776 28.16 28.16 28.16s28.16-11.776 28.16-28.16-11.776-28.16-28.16-28.16-28.16 11.776-28.16 28.16z" />
<glyph unicode="&#x10b;" glyph-name="cdotaccent" horiz-adv-x="225" d="M201.216 286.464v-44.032c-19.456 24.576-47.616 31.744-66.56 31.744-39.424 0-75.264-27.648-75.264-79.36s36.864-78.848 74.752-78.848c22.016 0 49.152 9.728 68.608 33.28v-44.032c-23.040-16.896-47.616-22.016-67.584-22.016-66.048 0-113.664 47.104-113.664 111.104 0 65.024 48.128 112.64 113.664 112.64 33.792 0 55.808-13.312 66.048-20.48zM108.032 372.48c0 15.36 11.776 27.136 27.136 27.136s27.136-11.776 27.136-27.136-11.776-27.136-27.136-27.136-27.136 11.776-27.136 27.136z" />
<glyph unicode="&#x10c;" glyph-name="Ccaron" horiz-adv-x="331" d="M305.152 402.688v-47.104c-10.752 10.752-27.136 23.552-44.544 31.744-17.92 8.192-38.912 13.312-58.88 13.312-78.848 0-137.216-63.488-137.216-142.336 0-92.672 75.264-139.264 137.728-139.264 23.040 0 45.568 6.656 63.488 15.872 19.456 9.728 33.28 22.528 39.424 28.672v-47.104c-37.888-27.136-77.312-33.28-102.912-33.28-101.376 0-176.64 76.8-176.64 175.616 0 101.888 76.288 177.664 178.688 177.664 20.48 0 59.904-2.56 100.864-33.792zM204.8 501.504l45.056 38.912 26.624-20.992-71.68-60.928-71.68 60.928 26.624 20.992z" />
<glyph unicode="&#x10d;" glyph-name="ccaron" horiz-adv-x="225" d="M201.216 286.464v-44.032c-19.456 24.576-47.616 31.744-66.56 31.744-39.424 0-75.264-27.648-75.264-79.36s36.864-78.848 74.752-78.848c22.016 0 49.152 9.728 68.608 33.28v-44.032c-23.040-16.896-47.616-22.016-67.584-22.016-66.048 0-113.664 47.104-113.664 111.104 0 65.024 48.128 112.64 113.664 112.64 33.792 0 55.808-13.312 66.048-20.48zM133.12 382.72l47.104 41.472 23.552-18.432-70.656-61.952-70.656 61.952 23.552 18.432z" />
<glyph unicode="&#x10e;" glyph-name="Dcaron" horiz-adv-x="324" d="M44.032 89.344v341.504h69.632c34.304 0 82.944-3.584 125.952-39.936 31.232-26.112 58.368-69.632 58.368-131.072 0-71.68-35.328-110.080-59.904-131.072-31.232-26.624-64-39.424-124.928-39.424h-69.12zM81.92 395.008v-269.824h33.28c27.136 0 64.512 3.072 97.792 30.72 25.6 21.504 46.080 55.296 46.080 103.936 0 81.92-57.344 135.168-143.872 135.168h-33.28zM143.36 501.504l45.056 38.912 26.624-20.992-71.68-60.928-71.68 60.928 26.624 20.992z" />
<glyph unicode="&#x10f;" glyph-name="dcaron" horiz-adv-x="305" d="M197.632 271.616v190.976h36.864v-373.248h-36.864v29.696c-12.288-15.872-35.328-35.84-72.704-35.84-53.76 0-103.424 37.888-103.424 112.64 0 73.216 49.152 111.104 103.424 111.104 40.96 0 62.976-22.528 72.704-35.328zM129.024 274.176c-36.352 0-69.632-26.624-69.632-78.336 0-45.568 25.6-79.872 69.632-79.872 45.056 0 70.656 37.376 70.656 79.36 0 54.784-37.888 78.848-70.656 78.848zM256 360.704l26.624 81.92 32.768-12.288-35.84-79.872z" />
<glyph unicode="&#x110;" glyph-name="Dcroat" horiz-adv-x="324" d="M44.032 89.344v172.032h-44.032v32.768h44.032v136.704h69.632c34.304 0 82.944-3.584 125.952-39.936 31.232-26.112 58.368-69.632 58.368-131.072 0-71.68-35.328-110.080-59.904-131.072-31.232-26.624-64-39.424-124.928-39.424h-69.12zM81.92 395.008v-100.864h69.632v-32.768h-69.632v-136.192h33.28c27.136 0 64.512 3.072 97.792 30.72 25.6 21.504 46.080 55.296 46.080 103.936 0 81.92-57.344 135.168-143.872 135.168h-33.28z" />
<glyph unicode="&#x111;" glyph-name="dcroat" horiz-adv-x="270" d="M197.632 271.616v101.376h-102.4v30.72h102.4v58.88h36.864v-58.88h34.816v-30.72h-34.816v-283.648h-36.864v29.696c-12.288-15.872-35.328-35.84-72.704-35.84-53.76 0-103.424 37.888-103.424 112.64 0 73.216 49.152 111.104 103.424 111.104 40.96 0 62.976-22.528 72.704-35.328zM129.024 274.176c-36.352 0-69.632-26.624-69.632-78.336 0-45.568 25.6-79.872 69.632-79.872 44.544 0 70.656 36.864 70.656 79.36 0 55.296-36.352 78.848-70.656 78.848z" />
<glyph unicode="&#x112;" glyph-name="Emacron" horiz-adv-x="247" d="M221.184 430.848v-35.84h-139.264v-101.376h135.168v-35.84h-135.168v-132.608h139.264v-35.84h-177.152v341.504h177.152zM51.2 464.64v32.768h163.84v-32.768h-163.84z" />
<glyph unicode="&#x113;" glyph-name="emacron" horiz-adv-x="247" d="M192.512 160.512l30.72-16.896c-6.144-11.776-15.36-24.576-26.112-34.304-19.456-17.408-43.52-26.112-70.656-26.112-51.2 0-104.96 32.256-104.96 111.104 0 63.488 38.912 112.64 102.912 112.64 41.472 0 67.584-20.48 80.384-38.912 13.312-18.944 20.992-51.712 19.968-79.872h-165.376c0.512-44.032 30.72-72.192 67.584-72.192 17.408 0 31.232 5.12 43.52 15.36 9.728 8.192 17.408 18.944 22.016 29.184zM61.952 218.88h124.928c-6.144 33.28-31.232 55.296-62.464 55.296s-56.832-23.552-62.464-55.296zM46.592 352v30.72h154.624v-30.72h-154.624z" />
<glyph unicode="&#x116;" glyph-name="Edotaccent" horiz-adv-x="247" d="M221.184 430.848v-35.84h-139.264v-101.376h135.168v-35.84h-135.168v-132.608h139.264v-35.84h-177.152v341.504h177.152zM104.96 490.752c0 16.384 11.776 28.16 28.16 28.16s28.16-11.776 28.16-28.16-11.776-28.16-28.16-28.16-28.16 11.776-28.16 28.16z" />
<glyph unicode="&#x117;" glyph-name="edotaccent" horiz-adv-x="247" d="M192.512 160.512l30.72-16.896c-6.144-11.776-15.36-24.576-26.112-34.304-19.456-17.408-43.52-26.112-70.656-26.112-51.2 0-104.96 32.256-104.96 111.104 0 63.488 38.912 112.64 102.912 112.64 41.472 0 67.584-20.48 80.384-38.912 13.312-18.944 20.992-51.712 19.968-79.872h-165.376c0.512-44.032 30.72-72.192 67.584-72.192 17.408 0 31.232 5.12 43.52 15.36 9.728 8.192 17.408 18.944 22.016 29.184zM61.952 218.88h124.928c-6.144 33.28-31.232 55.296-62.464 55.296s-56.832-23.552-62.464-55.296zM96.768 372.48c0 15.36 11.776 27.136 27.136 27.136s27.136-11.776 27.136-27.136-11.776-27.136-27.136-27.136-27.136 11.776-27.136 27.136z" />
<glyph unicode="&#x118;" glyph-name="Eogonek" horiz-adv-x="247" d="M221.184 430.848v-35.84h-139.264v-101.376h135.168v-35.84h-135.168v-132.608h139.264v-35.84h-20.48c-8.704-5.12-18.432-12.288-25.6-20.992-4.096-5.12-10.24-13.824-10.24-24.576 0-7.68 3.584-12.288 6.144-14.848 4.608-4.096 12.288-6.144 19.456-6.144 8.192 0 17.408 2.048 25.6 6.656l-4.096-30.208c-9.728-5.12-19.456-7.168-28.16-7.168-14.336 0-30.72 6.144-39.936 14.848-6.144 5.632-11.776 15.36-11.776 29.184 0 11.264 4.096 23.040 11.776 32.256 5.632 7.168 16.896 16.384 23.040 20.992h-122.88v341.504h177.152z" />
<glyph unicode="&#x119;" glyph-name="eogonek" horiz-adv-x="247" d="M193.024 160.512l30.72-16.896c-6.144-13.312-13.824-23.040-26.112-33.792-12.8-11.264-19.456-14.336-31.744-21.504-14.848-8.704-22.016-15.36-26.112-19.456-9.728-10.24-11.776-19.968-11.776-25.6 0-8.192 4.608-12.8 5.632-13.824 5.12-5.12 14.336-6.656 20.992-6.656 6.144 0 13.824 1.024 24.576 6.656l-4.096-28.16c-10.24-5.632-20.48-7.168-28.672-7.168-14.848 0-28.672 5.12-37.376 13.824-6.144 5.632-11.776 15.36-11.776 29.184 0 10.752 3.584 19.968 9.216 27.648 4.608 6.656 11.264 13.312 17.92 18.432-33.28 0-57.344 14.336-71.68 28.16s-31.232 39.424-31.232 82.944c0 35.328 12.288 65.536 31.744 84.992 14.336 14.336 37.376 27.648 71.68 27.648 30.208 0 55.296-11.264 71.168-27.648 28.672-29.184 29.184-75.776 29.184-91.136h-165.888c0.512-18.432 7.68-39.936 20.48-53.248 11.264-11.776 28.672-18.944 47.616-18.944 19.968 0 34.304 7.68 43.52 15.36s16.896 18.944 22.016 29.184zM62.464 218.88h124.928c-3.072 18.432-11.776 30.72-19.456 37.888-13.312 12.8-29.184 17.408-43.008 17.408-17.92 0-33.28-7.168-43.52-17.92-9.728-10.24-16.384-24.576-18.944-37.376z" />
<glyph unicode="&#x11a;" glyph-name="Ecaron" horiz-adv-x="247" d="M221.184 430.848v-35.84h-139.264v-101.376h135.168v-35.84h-135.168v-132.608h139.264v-35.84h-177.152v341.504h177.152zM133.12 501.504l45.056 38.912 26.624-20.992-71.68-60.928-71.68 60.928 26.624 20.992z" />
<glyph unicode="&#x11b;" glyph-name="ecaron" horiz-adv-x="247" d="M192.512 160.512l30.72-16.896c-6.144-11.776-15.36-24.576-26.112-34.304-19.456-17.408-43.52-26.112-70.656-26.112-51.2 0-104.96 32.256-104.96 111.104 0 63.488 38.912 112.64 102.912 112.64 41.472 0 67.584-20.48 80.384-38.912 13.312-18.944 20.992-51.712 19.968-79.872h-165.376c0.512-44.032 30.72-72.192 67.584-72.192 17.408 0 31.232 5.12 43.52 15.36 9.728 8.192 17.408 18.944 22.016 29.184zM61.952 218.88h124.928c-6.144 33.28-31.232 55.296-62.464 55.296s-56.832-23.552-62.464-55.296zM123.904 382.72l47.104 41.472 23.552-18.432-70.656-61.952-70.656 61.952 23.552 18.432z" />
<glyph unicode="&#x11c;" glyph-name="Gcircumflex" horiz-adv-x="388" d="M220.16 225.024v35.84h142.336v-8.192c0-37.888-11.264-78.848-32.768-108.032-10.24-13.824-48.64-61.44-126.976-61.44-101.376 0-177.152 77.312-177.152 176.64s76.288 176.64 178.176 176.64c32.768 0 71.168-8.192 104.448-33.792 15.36-11.776 29.696-27.136 39.424-40.448l-28.16-25.6c-9.728 13.824-20.992 26.112-32.256 35.328-16.384 13.312-41.984 28.672-82.944 28.672-82.432 0-139.776-61.952-139.776-141.312 0-93.184 74.24-140.288 138.752-140.288 45.568 0 84.992 23.040 104.448 57.344 6.144 10.752 12.8 27.136 13.824 48.64h-101.376zM202.752 497.408l-45.056-38.912-26.624 20.992 71.68 60.928 71.68-60.928-26.624-20.992z" />
<glyph unicode="&#x11d;" glyph-name="gcircumflex" horiz-adv-x="270" d="M197.632 271.616v30.208h36.864v-207.36c0-23.040 0-55.808-20.48-83.456-15.872-21.504-45.056-39.424-84.992-39.424-36.352 0-61.44 14.336-75.776 28.672s-27.648 37.376-27.648 68.608h36.352c0-17.92 7.168-33.792 16.384-44.032 15.36-16.896 34.816-20.48 51.2-20.48 26.112 0 44.032 9.216 56.32 29.696 10.752 17.408 11.776 36.352 11.776 54.272v30.72c-12.288-15.872-35.328-35.84-72.704-35.84-31.232 0-56.32 12.288-72.704 28.672-14.336 14.336-30.72 40.96-30.72 83.968 0 41.472 15.36 67.072 30.72 82.432 17.92 17.408 44.032 28.672 72.704 28.672 31.232 0 55.808-13.312 72.704-35.328zM129.024 274.176c-22.528 0-37.888-9.728-48.128-19.968-17.92-18.432-21.504-40.96-21.504-58.368 0-18.432 3.584-43.52 24.064-62.464 11.776-10.752 26.112-17.408 45.568-17.408s34.816 6.144 46.592 17.92c14.336 13.824 24.064 36.352 24.064 61.44s-9.216 47.104-22.528 59.904c-11.776 11.776-29.184 18.944-48.128 18.944zM134.656 385.28l-47.104-41.472-23.552 18.432 70.656 61.952 70.656-61.952-23.552-18.432z" />
<glyph unicode="&#x11e;" glyph-name="Gbreve" horiz-adv-x="388" d="M220.16 225.024v35.84h142.336v-8.192c0-37.888-11.264-78.848-32.768-108.032-10.24-13.824-48.64-61.44-126.976-61.44-101.376 0-177.152 77.312-177.152 176.64s76.288 176.64 178.176 176.64c32.768 0 71.168-8.192 104.448-33.792 15.36-11.776 29.696-27.136 39.424-40.448l-28.16-25.6c-9.728 13.824-20.992 26.112-32.256 35.328-16.384 13.312-41.984 28.672-82.944 28.672-82.432 0-139.776-61.952-139.776-141.312 0-93.184 74.24-140.288 138.752-140.288 45.568 0 84.992 23.040 104.448 57.344 6.144 10.752 12.8 27.136 13.824 48.64h-101.376zM248.32 519.936h33.792c-2.56-13.312-8.192-25.088-15.872-34.304-10.24-11.776-29.696-27.136-63.488-27.136s-53.248 15.36-63.488 27.136c-7.68 9.216-13.312 20.992-15.872 34.304h33.792c2.048-6.144 5.632-12.8 12.8-18.432 9.216-7.168 21.504-10.24 32.768-10.24s23.552 3.072 32.768 10.24c7.168 5.632 10.752 12.288 12.8 18.432z" />
<glyph unicode="&#x11f;" glyph-name="gbreve" horiz-adv-x="270" d="M197.632 271.616v30.208h36.864v-207.36c0-23.040 0-55.808-20.48-83.456-15.872-21.504-45.056-39.424-84.992-39.424-36.352 0-61.44 14.336-75.776 28.672s-27.648 37.376-27.648 68.608h36.352c0-17.92 7.168-33.792 16.384-44.032 15.36-16.896 34.816-20.48 51.2-20.48 26.112 0 44.032 9.216 56.32 29.696 10.752 17.408 11.776 36.352 11.776 54.272v30.72c-12.288-15.872-35.328-35.84-72.704-35.84-31.232 0-56.32 12.288-72.704 28.672-14.336 14.336-30.72 40.96-30.72 83.968 0 41.472 15.36 67.072 30.72 82.432 17.92 17.408 44.032 28.672 72.704 28.672 31.232 0 55.808-13.312 72.704-35.328zM129.024 274.176c-22.528 0-37.888-9.728-48.128-19.968-17.92-18.432-21.504-40.96-21.504-58.368 0-18.432 3.584-43.52 24.064-62.464 11.776-10.752 26.112-17.408 45.568-17.408s34.816 6.144 46.592 17.92c14.336 13.824 24.064 36.352 24.064 61.44s-9.216 47.104-22.528 59.904c-11.776 11.776-29.184 18.944-48.128 18.944zM60.416 405.248h31.232c2.56-9.216 7.68-15.872 12.288-19.968 8.704-7.68 19.456-10.752 30.72-10.752s22.016 3.072 30.72 10.752c4.608 4.096 9.728 10.752 12.288 19.968h31.232c-3.584-19.456-12.8-31.232-14.848-34.304-9.216-11.776-26.624-27.136-59.392-27.136s-50.176 15.36-59.392 27.136c-2.048 3.072-11.264 14.848-14.848 34.304z" />
<glyph unicode="&#x120;" glyph-name="Gdotaccent" horiz-adv-x="388" d="M220.16 225.024v35.84h142.336v-8.192c0-37.888-11.264-78.848-32.768-108.032-10.24-13.824-48.64-61.44-126.976-61.44-101.376 0-177.152 77.312-177.152 176.64s76.288 176.64 178.176 176.64c32.768 0 71.168-8.192 104.448-33.792 15.36-11.776 29.696-27.136 39.424-40.448l-28.16-25.6c-9.728 13.824-20.992 26.112-32.256 35.328-16.384 13.312-41.984 28.672-82.944 28.672-82.432 0-139.776-61.952-139.776-141.312 0-93.184 74.24-140.288 138.752-140.288 45.568 0 84.992 23.040 104.448 57.344 6.144 10.752 12.8 27.136 13.824 48.64h-101.376zM176.128 490.752c0 16.384 11.776 28.16 28.16 28.16s28.16-11.776 28.16-28.16-11.776-28.16-28.16-28.16-28.16 11.776-28.16 28.16z" />
</font>
</defs>
</svg>
